<svg id="my-svg" width="100%" xmlns="http://www.w3.org/2000/svg" xmlns:xlink="http://www.w3.org/1999/xlink" class="flowchart" style="max-width: 2246.89px; background-color: white;" viewBox="0 0 2246.89453125 1836" role="graphics-document document" aria-roledescription="flowchart-v2"><style>#my-svg{font-family:"trebuchet ms",verdana,arial,sans-serif;font-size:16px;fill:#333;}@keyframes edge-animation-frame{from{stroke-dashoffset:0;}}@keyframes dash{to{stroke-dashoffset:0;}}#my-svg .edge-animation-slow{stroke-dasharray:9,5!important;stroke-dashoffset:900;animation:dash 50s linear infinite;stroke-linecap:round;}#my-svg .edge-animation-fast{stroke-dasharray:9,5!important;stroke-dashoffset:900;animation:dash 20s linear infinite;stroke-linecap:round;}#my-svg .error-icon{fill:#552222;}#my-svg .error-text{fill:#552222;stroke:#552222;}#my-svg .edge-thickness-normal{stroke-width:1px;}#my-svg .edge-thickness-thick{stroke-width:3.5px;}#my-svg .edge-pattern-solid{stroke-dasharray:0;}#my-svg .edge-thickness-invisible{stroke-width:0;fill:none;}#my-svg .edge-pattern-dashed{stroke-dasharray:3;}#my-svg .edge-pattern-dotted{stroke-dasharray:2;}#my-svg .marker{fill:#333333;stroke:#333333;}#my-svg .marker.cross{stroke:#333333;}#my-svg svg{font-family:"trebuchet ms",verdana,arial,sans-serif;font-size:16px;}#my-svg p{margin:0;}#my-svg .label{font-family:"trebuchet ms",verdana,arial,sans-serif;color:#333;}#my-svg .cluster-label text{fill:#333;}#my-svg .cluster-label span{color:#333;}#my-svg .cluster-label span p{background-color:transparent;}#my-svg .label text,#my-svg span{fill:#333;color:#333;}#my-svg .node rect,#my-svg .node circle,#my-svg .node ellipse,#my-svg .node polygon,#my-svg .node path{fill:#ECECFF;stroke:#9370DB;stroke-width:1px;}#my-svg .rough-node .label text,#my-svg .node .label text,#my-svg .image-shape .label,#my-svg .icon-shape .label{text-anchor:middle;}#my-svg .node .katex path{fill:#000;stroke:#000;stroke-width:1px;}#my-svg .rough-node .label,#my-svg .node .label,#my-svg .image-shape .label,#my-svg .icon-shape .label{text-align:center;}#my-svg .node.clickable{cursor:pointer;}#my-svg .root .anchor path{fill:#333333!important;stroke-width:0;stroke:#333333;}#my-svg .arrowheadPath{fill:#333333;}#my-svg .edgePath .path{stroke:#333333;stroke-width:1px;}#my-svg .flowchart-link{stroke:#333333;fill:none;}#my-svg .edgeLabel{background-color:rgba(232,232,232, 0.8);text-align:center;}#my-svg .edgeLabel p{background-color:rgba(232,232,232, 0.8);}#my-svg .edgeLabel rect{opacity:0.5;background-color:rgba(232,232,232, 0.8);fill:rgba(232,232,232, 0.8);}#my-svg .labelBkg{background-color:rgba(232, 232, 232, 0.5);}#my-svg .cluster rect{fill:#ffffde;stroke:#aaaa33;stroke-width:1px;}#my-svg .cluster text{fill:#333;}#my-svg .cluster span{color:#333;}#my-svg div.mermaidTooltip{position:absolute;text-align:center;max-width:200px;padding:2px;font-family:"trebuchet ms",verdana,arial,sans-serif;font-size:12px;background:hsl(80, 100%, 96.2745098039%);border:1px solid #aaaa33;border-radius:2px;pointer-events:none;z-index:100;}#my-svg .flowchartTitleText{text-anchor:middle;font-size:18px;fill:#333;}#my-svg rect.text{fill:none;stroke-width:0;}#my-svg .icon-shape,#my-svg .image-shape{background-color:rgba(232,232,232, 0.8);text-align:center;}#my-svg .icon-shape p,#my-svg .image-shape p{background-color:rgba(232,232,232, 0.8);padding:2px;}#my-svg .icon-shape .label rect,#my-svg .image-shape .label rect{opacity:0.5;background-color:rgba(232,232,232, 0.8);fill:rgba(232,232,232, 0.8);}#my-svg .label-icon{display:inline-block;height:1em;overflow:visible;vertical-align:-0.125em;}#my-svg .node .label-icon path{fill:currentColor;stroke:revert;stroke-width:revert;}#my-svg .node .neo-node{stroke:#9370DB;}#my-svg [data-look="neo"].node rect,#my-svg [data-look="neo"].cluster rect,#my-svg [data-look="neo"].node polygon{stroke:#9370DB;filter:drop-shadow(1px 2px 2px rgba(185, 185, 185, 1));}#my-svg [data-look="neo"].node path{stroke:#9370DB;stroke-width:1px;}#my-svg [data-look="neo"].node .outer-path{filter:drop-shadow(1px 2px 2px rgba(185, 185, 185, 1));}#my-svg [data-look="neo"].node .neo-line path{stroke:#9370DB;filter:none;}#my-svg [data-look="neo"].node circle{stroke:#9370DB;filter:drop-shadow(1px 2px 2px rgba(185, 185, 185, 1));}#my-svg [data-look="neo"].node circle .state-start{fill:#000000;}#my-svg [data-look="neo"].icon-shape .icon{fill:#9370DB;filter:drop-shadow(1px 2px 2px rgba(185, 185, 185, 1));}#my-svg [data-look="neo"].icon-shape .icon-neo path{stroke:#9370DB;filter:drop-shadow(1px 2px 2px rgba(185, 185, 185, 1));}#my-svg :root{--mermaid-font-family:"trebuchet ms",verdana,arial,sans-serif;}#my-svg .primary&gt;*{fill:#d4edda!important;stroke:#28a745!important;stroke-width:2px!important;color:#155724!important;}#my-svg .primary span{fill:#d4edda!important;stroke:#28a745!important;stroke-width:2px!important;color:#155724!important;}#my-svg .primary tspan{fill:#155724!important;}#my-svg .warm&gt;*{fill:#fff3cd!important;stroke:#ffc107!important;stroke-width:2px!important;color:#856404!important;}#my-svg .warm span{fill:#fff3cd!important;stroke:#ffc107!important;stroke-width:2px!important;color:#856404!important;}#my-svg .warm tspan{fill:#856404!important;}#my-svg .control&gt;*{fill:#cce5ff!important;stroke:#004085!important;stroke-width:2px!important;color:#004085!important;}#my-svg .control span{fill:#cce5ff!important;stroke:#004085!important;stroke-width:2px!important;color:#004085!important;}#my-svg .control tspan{fill:#004085!important;}#my-svg .external&gt;*{fill:#e2e3e5!important;stroke:#383d41!important;stroke-width:2px!important;color:#383d41!important;}#my-svg .external span{fill:#e2e3e5!important;stroke:#383d41!important;stroke-width:2px!important;color:#383d41!important;}#my-svg .external tspan{fill:#383d41!important;}</style><g><marker id="my-svg_flowchart-v2-pointEnd" class="marker flowchart-v2" viewBox="0 0 10 10" refX="5" refY="5" markerUnits="userSpaceOnUse" markerWidth="8" markerHeight="8" orient="auto"><path d="M 0 0 L 10 5 L 0 10 z" class="arrowMarkerPath" style="stroke-width: 1; stroke-dasharray: 1, 0;"/></marker><marker id="my-svg_flowchart-v2-pointStart" class="marker flowchart-v2" viewBox="0 0 10 10" refX="4.5" refY="5" markerUnits="userSpaceOnUse" markerWidth="8" markerHeight="8" orient="auto"><path d="M 0 5 L 10 10 L 10 0 z" class="arrowMarkerPath" style="stroke-width: 1; stroke-dasharray: 1, 0;"/></marker><marker id="my-svg_flowchart-v2-pointEnd-margin" class="marker flowchart-v2" viewBox="0 0 11.5 14" refX="11.5" refY="7" markerUnits="userSpaceOnUse" markerWidth="10.5" markerHeight="14" orient="auto"><path d="M 0 0 L 11.5 7 L 0 14 z" class="arrowMarkerPath" style="stroke-width: 0; stroke-dasharray: 1, 0;"/></marker><marker id="my-svg_flowchart-v2-pointStart-margin" class="marker flowchart-v2" viewBox="0 0 11.5 14" refX="1" refY="7" markerUnits="userSpaceOnUse" markerWidth="11.5" markerHeight="14" orient="auto"><polygon points="0,7 11.5,14 11.5,0" class="arrowMarkerPath" style="stroke-width: 0; stroke-dasharray: 1, 0;"/></marker><marker id="my-svg_flowchart-v2-circleEnd" class="marker flowchart-v2" viewBox="0 0 10 10" refX="11" refY="5" markerUnits="userSpaceOnUse" markerWidth="11" markerHeight="11" orient="auto"><circle cx="5" cy="5" r="5" class="arrowMarkerPath" style="stroke-width: 1; stroke-dasharray: 1, 0;"/></marker><marker id="my-svg_flowchart-v2-circleStart" class="marker flowchart-v2" viewBox="0 0 10 10" refX="-1" refY="5" markerUnits="userSpaceOnUse" markerWidth="11" markerHeight="11" orient="auto"><circle cx="5" cy="5" r="5" class="arrowMarkerPath" style="stroke-width: 1; stroke-dasharray: 1, 0;"/></marker><marker id="my-svg_flowchart-v2-circleEnd-margin" class="marker flowchart-v2" viewBox="0 0 10 10" refY="5" refX="12.25" markerUnits="userSpaceOnUse" markerWidth="14" markerHeight="14" orient="auto"><circle cx="5" cy="5" r="5" class="arrowMarkerPath" style="stroke-width: 0; stroke-dasharray: 1, 0;"/></marker><marker id="my-svg_flowchart-v2-circleStart-margin" class="marker flowchart-v2" viewBox="0 0 10 10" refX="-2" refY="5" markerUnits="userSpaceOnUse" markerWidth="14" markerHeight="14" orient="auto"><circle cx="5" cy="5" r="5" class="arrowMarkerPath" style="stroke-width: 0; stroke-dasharray: 1, 0;"/></marker><marker id="my-svg_flowchart-v2-crossEnd" class="marker cross flowchart-v2" viewBox="0 0 11 11" refX="12" refY="5.2" markerUnits="userSpaceOnUse" markerWidth="11" markerHeight="11" orient="auto"><path d="M 1,1 l 9,9 M 10,1 l -9,9" class="arrowMarkerPath" style="stroke-width: 2; stroke-dasharray: 1, 0;"/></marker><marker id="my-svg_flowchart-v2-crossStart" class="marker cross flowchart-v2" viewBox="0 0 11 11" refX="-1" refY="5.2" markerUnits="userSpaceOnUse" markerWidth="11" markerHeight="11" orient="auto"><path d="M 1,1 l 9,9 M 10,1 l -9,9" class="arrowMarkerPath" style="stroke-width: 2; stroke-dasharray: 1, 0;"/></marker><marker id="my-svg_flowchart-v2-crossEnd-margin" class="marker cross flowchart-v2" viewBox="0 0 15 15" refX="17.7" refY="7.5" markerUnits="userSpaceOnUse" markerWidth="12" markerHeight="12" orient="auto"><path d="M 1,1 L 14,14 M 1,14 L 14,1" class="arrowMarkerPath" style="stroke-width: 2.5;"/></marker><marker id="my-svg_flowchart-v2-crossStart-margin" class="marker cross flowchart-v2" viewBox="0 0 15 15" refX="-3.5" refY="7.5" markerUnits="userSpaceOnUse" markerWidth="12" markerHeight="12" orient="auto"><path d="M 1,1 L 14,14 M 1,14 L 14,1" class="arrowMarkerPath" style="stroke-width: 2.5; stroke-dasharray: 1, 0;"/></marker><g class="root"><g class="clusters"><g class="cluster" id="my-svg-WEST" data-look="classic"><rect style="" x="8" y="818" width="1199.48046875" height="1010"/><g class="cluster-label" transform="translate(409.615234375, 818)"><foreignObject width="396.25" height="24"><div xmlns="http://www.w3.org/1999/xhtml" style="display: table-cell; white-space: nowrap; line-height: 1.5;"><span class="nodeLabel"><p>REGION us-west-2 (WARM SECONDARY - no atiende)</p></span></div></foreignObject></g></g><g class="cluster" id="my-svg-EAST" data-look="classic"><rect style="" x="1234.48828125" y="8" width="1004.40625" height="1463"/><g class="cluster-label" transform="translate(1569.80859375, 8)"><foreignObject width="333.765625" height="24"><div xmlns="http://www.w3.org/1999/xhtml" style="display: table-cell; white-space: nowrap; line-height: 1.5;"><span class="nodeLabel"><p>REGION us-east-1 (PRIMARY - atiende 100%)</p></span></div></foreignObject></g></g><g class="cluster" id="my-svg-WEST_VPC" data-look="classic"><rect style="" x="336.34375" y="1172" width="692.76171875" height="631"/><g class="cluster-label" transform="translate(620.021484375, 1172)"><foreignObject width="125.40625" height="24"><div xmlns="http://www.w3.org/1999/xhtml" style="display: table-cell; white-space: nowrap; line-height: 1.5;"><span class="nodeLabel"><p>VPC segmentada</p></span></div></foreignObject></g></g><g class="cluster" id="my-svg-AURORA_W" data-look="classic"><rect style="" x="356.34375" y="1593" width="460.4296875" height="185"/><g class="cluster-label" transform="translate(466.22265625, 1593)"><foreignObject width="240.671875" height="24"><div xmlns="http://www.w3.org/1999/xhtml" style="display: table-cell; white-space: nowrap; line-height: 1.5;"><span class="nodeLabel"><p>Aurora Global DB - SECONDARY</p></span></div></foreignObject></g></g><g class="cluster" id="my-svg-EAST_VPC" data-look="classic"><rect style="" x="1410.20703125" y="971" width="544.59375" height="475"/><g class="cluster-label" transform="translate(1557.11328125, 971)"><foreignObject width="250.78125" height="24"><div xmlns="http://www.w3.org/1999/xhtml" style="display: table-cell; white-space: nowrap; line-height: 1.5;"><span class="nodeLabel"><p>VPC segmentada (auditoria CNBV)</p></span></div></foreignObject></g></g><g class="cluster" id="my-svg-AURORA_E" data-look="classic"><rect style="" x="1430.20703125" y="1197" width="281.3984375" height="224"/><g class="cluster-label" transform="translate(1464.796875, 1197)"><foreignObject width="212.21875" height="24"><div xmlns="http://www.w3.org/1999/xhtml" style="display: table-cell; white-space: nowrap; line-height: 1.5;"><span class="nodeLabel"><p>Aurora Global DB - PRIMARY</p></span></div></foreignObject></g></g></g><g class="edgePaths"><path d="M944.113,144.5L944.03,158.583C943.947,172.667,943.78,200.833,943.697,220.417C943.613,240,943.613,251,943.613,256.5L943.613,262" id="my-svg-L_Client_R53_0" class="edge-thickness-normal edge-pattern-solid edge-thickness-normal edge-pattern-solid flowchart-link" style=";" data-edge="true" data-et="edge" data-id="L_Client_R53_0" data-points="W3sieCI6OTQ0LjExMzI4MTI1LCJ5IjoxNDQuNX0seyJ4Ijo5NDMuNjEzMjgxMjUsInkiOjIyOX0seyJ4Ijo5NDMuNjEzMjgxMjUsInkiOjI2Nn1d" data-look="classic" marker-end="url(#my-svg_flowchart-v2-pointEnd)"/><path d="M680.664,174.295L697.918,183.413C715.172,192.53,749.68,210.765,781.039,237.578C812.398,264.391,840.609,299.781,854.715,317.477L868.82,335.172" id="my-svg-L_ARC_R53_0" class="edge-thickness-normal edge-pattern-dotted edge-thickness-normal edge-pattern-solid flowchart-link" style=";" data-edge="true" data-et="edge" data-id="L_ARC_R53_0" data-points="W3sieCI6NjgwLjY2NDM0MDk3MjkwMDQsInkiOjE3NC4yOTUzNTUxNjcyMzczN30seyJ4Ijo3ODQuMTg3NSwieSI6MjI5fSx7IngiOjg3MS4zMTM1MDgzOTE4MTY5LCJ5IjozMzguMjk5NzcyODU4MTgzMX1d" data-look="classic" marker-end="url(#my-svg_flowchart-v2-pointEnd)"/><path d="M1074.041,461.573L1185.775,489.477C1297.51,517.382,1520.979,573.191,1632.714,606.595C1744.449,640,1744.449,651,1744.449,656.5L1744.449,662" id="my-svg-L_R53_APIGW_E_0" class="edge-thickness-thick edge-pattern-solid edge-thickness-normal edge-pattern-solid flowchart-link" style=";" data-edge="true" data-et="edge" data-id="L_R53_APIGW_E_0" data-points="W3sieCI6MTA3NC4wNDA1MDA5ODc4NjM3LCJ5Ijo0NjEuNTcyNzgwMjYyMTM2MjN9LHsieCI6MTc0NC40NDg5NDAyNzcwOTk2LCJ5Ijo2Mjl9LHsieCI6MTc0NC40NDg5NDAyNzcwOTk2LCJ5Ijo2NjZ9XQ==" data-look="classic" marker-end="url(#my-svg_flowchart-v2-pointEnd)"/><path d="M1744.449,720L1744.449,728.167C1744.449,736.333,1744.449,752.667,1744.449,769C1744.449,785.333,1744.449,801.667,1744.449,815.333C1744.449,829,1744.449,840,1744.449,845.5L1744.449,851" id="my-svg-L_APIGW_E_ALB_E_0" class="edge-thickness-normal edge-pattern-solid edge-thickness-normal edge-pattern-solid flowchart-link" style=";" data-edge="true" data-et="edge" data-id="L_APIGW_E_ALB_E_0" data-points="W3sieCI6MTc0NC40NDg5NDAyNzcwOTk2LCJ5Ijo3MjB9LHsieCI6MTc0NC40NDg5NDAyNzcwOTk2LCJ5Ijo3Njl9LHsieCI6MTc0NC40NDg5NDAyNzcwOTk2LCJ5Ijo4MTh9LHsieCI6MTc0NC40NDg5NDAyNzcwOTk2LCJ5Ijo4NTV9XQ==" data-look="classic" marker-end="url(#my-svg_flowchart-v2-pointEnd)"/><path d="M1744.449,909L1744.449,915.167C1744.449,921.333,1744.449,933.667,1744.449,944C1744.449,954.333,1744.449,962.667,1744.449,970.333C1744.449,978,1744.449,985,1744.449,988.5L1744.449,992" id="my-svg-L_ALB_E_ECS_E_0" class="edge-thickness-normal edge-pattern-solid edge-thickness-normal edge-pattern-solid flowchart-link" style=";" data-edge="true" data-et="edge" data-id="L_ALB_E_ECS_E_0" data-points="W3sieCI6MTc0NC40NDg5NDAyNzcwOTk2LCJ5Ijo5MDl9LHsieCI6MTc0NC40NDg5NDAyNzcwOTk2LCJ5Ijo5NDZ9LHsieCI6MTc0NC40NDg5NDAyNzcwOTk2LCJ5Ijo5NzF9LHsieCI6MTc0NC40NDg5NDAyNzcwOTk2LCJ5Ijo5OTZ9XQ==" data-look="classic" marker-end="url(#my-svg_flowchart-v2-pointEnd)"/><path d="M1641.401,1098L1628.941,1104.167C1616.481,1110.333,1591.561,1122.667,1579.101,1135C1566.641,1147.333,1566.641,1159.667,1566.641,1170C1566.641,1180.333,1566.641,1188.667,1558.26,1206.106C1549.88,1223.545,1533.119,1250.091,1524.739,1263.363L1516.358,1276.636" id="my-svg-L_ECS_E_WRITER_E_0" class="edge-thickness-normal edge-pattern-solid edge-thickness-normal edge-pattern-solid flowchart-link" style=";" data-edge="true" data-et="edge" data-id="L_ECS_E_WRITER_E_0" data-points="W3sieCI6MTY0MS40MDA5MzkzNzc4NzE1LCJ5IjoxMDk4fSx7IngiOjE1NjYuNjQwNjI1LCJ5IjoxMTM1fSx7IngiOjE1NjYuNjQwNjI1LCJ5IjoxMTcyfSx7IngiOjE1NjYuNjQwNjI1LCJ5IjoxMTk3fSx7IngiOjE1MTQuMjIyODE5NDM5NzM0MiwieSI6MTI4MC4wMTc5OTI0MjMxMTg2fV0=" data-look="classic" marker-end="url(#my-svg_flowchart-v2-pointEnd)"/><path d="M1685.575,1098L1678.457,1104.167C1671.338,1110.333,1657.101,1122.667,1649.982,1135C1642.863,1147.333,1642.863,1159.667,1642.863,1170C1642.863,1180.333,1642.863,1188.667,1642.863,1205.392C1642.863,1222.118,1642.863,1247.235,1642.863,1259.794L1642.863,1272.353" id="my-svg-L_ECS_E_READ_E1_0" class="edge-thickness-normal edge-pattern-dotted edge-thickness-normal edge-pattern-solid flowchart-link" style=";" data-edge="true" data-et="edge" data-id="L_ECS_E_READ_E1_0" data-points="W3sieCI6MTY4NS41NzU0MzMzNDA5Mzk1LCJ5IjoxMDk4fSx7IngiOjE2NDIuODYzMjgxMjUsInkiOjExMzV9LHsieCI6MTY0Mi44NjMyODEyNSwieSI6MTE3Mn0seyJ4IjoxNjQyLjg2MzI4MTI1LCJ5IjoxMTk3fSx7IngiOjE2NDIuODYzMjgxMjUsInkiOjEyNzYuMzUyNjI2ODAwNTM3fV0=" data-look="classic" marker-end="url(#my-svg_flowchart-v2-pointEnd)"/><path d="M943.613,592L943.613,598.167C943.613,604.333,943.613,616.667,943.613,633.5C943.613,650.333,943.613,671.667,943.613,695C943.613,718.333,943.613,743.667,943.613,764.5C943.613,785.333,943.613,801.667,943.613,813.333C943.613,825,943.613,832,943.613,835.5L943.613,839" id="my-svg-L_R53_APIGW_W_0" class="edge-thickness-normal edge-pattern-dotted edge-thickness-normal edge-pattern-solid flowchart-link" style=";" data-edge="true" data-et="edge" data-id="L_R53_APIGW_W_0" data-points="W3sieCI6OTQzLjYxMzI4MTI1LCJ5Ijo1OTJ9LHsieCI6OTQzLjYxMzI4MTI1LCJ5Ijo2Mjl9LHsieCI6OTQzLjYxMzI4MTI1LCJ5Ijo2OTN9LHsieCI6OTQzLjYxMzI4MTI1LCJ5Ijo3Njl9LHsieCI6OTQzLjYxMzI4MTI1LCJ5Ijo4MTh9LHsieCI6OTQzLjYxMzI4MTI1LCJ5Ijo4NDN9XQ==" data-look="classic" marker-end="url(#my-svg_flowchart-v2-pointEnd)"/><path d="M943.613,921L943.613,925.167C943.613,929.333,943.613,937.667,943.613,946C943.613,954.333,943.613,962.667,943.613,972.333C943.613,982,943.613,993,943.613,998.5L943.613,1004" id="my-svg-L_APIGW_W_ALB_W_0" class="edge-thickness-normal edge-pattern-dotted edge-thickness-normal edge-pattern-solid flowchart-link" style=";" data-edge="true" data-et="edge" data-id="L_APIGW_W_ALB_W_0" data-points="W3sieCI6OTQzLjYxMzI4MTI1LCJ5Ijo5MjF9LHsieCI6OTQzLjYxMzI4MTI1LCJ5Ijo5NDZ9LHsieCI6OTQzLjYxMzI4MTI1LCJ5Ijo5NzF9LHsieCI6OTQzLjYxMzI4MTI1LCJ5IjoxMDA4fV0=" data-look="classic" marker-end="url(#my-svg_flowchart-v2-pointEnd)"/><path d="M943.613,1086L943.613,1094.167C943.613,1102.333,943.613,1118.667,943.613,1133C943.613,1147.333,943.613,1159.667,943.613,1170C943.613,1180.333,943.613,1188.667,939.836,1196.533C936.059,1204.4,928.506,1211.801,924.729,1215.501L920.952,1219.201" id="my-svg-L_ALB_W_ECS_W_0" class="edge-thickness-normal edge-pattern-dotted edge-thickness-normal edge-pattern-solid flowchart-link" style=";" data-edge="true" data-et="edge" data-id="L_ALB_W_ECS_W_0" data-points="W3sieCI6OTQzLjYxMzI4MTI1LCJ5IjoxMDg2fSx7IngiOjk0My42MTMyODEyNSwieSI6MTEzNX0seyJ4Ijo5NDMuNjEzMjgxMjUsInkiOjExNzJ9LHsieCI6OTQzLjYxMzI4MTI1LCJ5IjoxMTk3fSx7IngiOjkxOC4wOTQ0ODI0MjE4NzUsInkiOjEyMjJ9XQ==" data-look="classic" marker-end="url(#my-svg_flowchart-v2-pointEnd)"/><path d="M774.577,1396L771.957,1400.167C769.337,1404.333,764.096,1412.667,761.476,1421C758.855,1429.333,758.855,1437.667,758.855,1446C758.855,1454.333,758.855,1462.667,758.855,1477C758.855,1491.333,758.855,1511.667,758.855,1532C758.855,1552.333,758.855,1572.667,725.636,1593.603C692.417,1614.54,625.978,1636.079,592.759,1646.849L559.539,1657.619" id="my-svg-L_ECS_W_READ_W1_0" class="edge-thickness-normal edge-pattern-dotted edge-thickness-normal edge-pattern-solid flowchart-link" style=";" data-edge="true" data-et="edge" data-id="L_ECS_W_READ_W1_0" data-points="W3sieCI6Nzc0LjU3NzI1MzA2OTE5NjQsInkiOjEzOTZ9LHsieCI6NzU4Ljg1NTQ2ODc1LCJ5IjoxNDIxfSx7IngiOjc1OC44NTU0Njg3NSwieSI6MTQ0Nn0seyJ4Ijo3NTguODU1NDY4NzUsInkiOjE0NzF9LHsieCI6NzU4Ljg1NTQ2ODc1LCJ5IjoxNTMyfSx7IngiOjc1OC44NTU0Njg3NSwieSI6MTU5M30seyJ4Ijo1NTUuNzM0Mzc1LCJ5IjoxNjU4Ljg1MjE1ODM3NjgwMn1d" data-look="classic" marker-end="url(#my-svg_flowchart-v2-pointEnd)"/><path d="M1493.895,1340.297L1493.895,1353.748C1493.895,1367.198,1493.895,1394.099,1493.895,1411.716C1493.895,1429.333,1493.895,1437.667,1480.11,1446C1466.325,1454.333,1438.756,1462.667,1285.941,1477C1133.126,1491.333,855.065,1511.667,716.034,1532C577.004,1552.333,577.004,1572.667,570.077,1589.701C563.15,1606.735,549.295,1620.471,542.368,1627.339L535.441,1634.206" id="my-svg-L_WRITER_E_READ_W1_0" class="edge-thickness-thick edge-pattern-solid edge-thickness-normal edge-pattern-solid flowchart-link" style=";" data-edge="true" data-et="edge" data-id="L_WRITER_E_READ_W1_0" data-points="W3sieCI6MTQ5My44OTQ1MzEyNSwieSI6MTM0MC4yOTc0NjQzNzA3Mjc1fSx7IngiOjE0OTMuODk0NTMxMjUsInkiOjE0MjF9LHsieCI6MTQ5My44OTQ1MzEyNSwieSI6MTQ0Nn0seyJ4IjoxNDExLjE4NzIyMTUyNzA5OTYsInkiOjE0NzF9LHsieCI6NTc3LjAwMzkwNjI1LCJ5IjoxNTMyfSx7IngiOjU3Ny4wMDM5MDYyNSwieSI6MTU5M30seyJ4Ijo1MzIuNjAwMzQwODU2NzMyNiwieSI6MTYzNy4wMjI0OTIzNjY5MzExfV0=" data-look="classic" marker-end="url(#my-svg_flowchart-v2-pointEnd)"/><path d="M1322.348,1345.679L1322.348,1358.233C1322.348,1370.786,1322.348,1395.893,1322.348,1412.613C1322.348,1429.333,1322.348,1437.667,1344.954,1446C1367.561,1454.333,1412.775,1462.667,1378.765,1477C1344.756,1491.333,1231.525,1511.667,1174.909,1532C1118.293,1552.333,1118.293,1572.667,1118.293,1591.432C1118.293,1610.197,1118.293,1627.393,1118.293,1635.991L1118.293,1644.59" id="my-svg-L_S3_E_S3_W_0" class="edge-thickness-thick edge-pattern-solid edge-thickness-normal edge-pattern-solid flowchart-link" style=";" data-edge="true" data-et="edge" data-id="L_S3_E_S3_W_0" data-points="W3sieCI6MTMyMi4zNDc2NTYyNSwieSI6MTM0NS42NzkxMDM4NTEzMTg0fSx7IngiOjEzMjIuMzQ3NjU2MjUsInkiOjE0MjF9LHsieCI6MTMyMi4zNDc2NTYyNSwieSI6MTQ0Nn0seyJ4IjoxNDU3Ljk4ODAwMjc3NzA5OTYsInkiOjE0NzF9LHsieCI6MTExOC4yOTI5Njg3NSwieSI6MTUzMn0seyJ4IjoxMTE4LjI5Mjk2ODc1LCJ5IjoxNTkzfSx7IngiOjExMTguMjkyOTY4NzUsInkiOjE2NDguNTg5NzAyNjA2MjAxMn1d" data-look="classic" marker-end="url(#my-svg_flowchart-v2-pointEnd)"/><path d="M1780.304,1098L1784.639,1104.167C1788.975,1110.333,1797.646,1122.667,1801.981,1135C1806.316,1147.333,1806.316,1159.667,1806.316,1170C1806.316,1180.333,1806.316,1188.667,1806.316,1211.5C1806.316,1234.333,1806.316,1271.667,1806.316,1309C1806.316,1346.333,1806.316,1383.667,1806.316,1406.5C1806.316,1429.333,1806.316,1437.667,1806.316,1446C1806.316,1454.333,1806.316,1462.667,1806.316,1477C1806.316,1491.333,1806.316,1511.667,1806.316,1532C1806.316,1552.333,1806.316,1572.667,1806.387,1586.417C1806.457,1600.167,1806.597,1607.334,1806.668,1610.917L1806.738,1614.501" id="my-svg-L_ECS_E_Bureaus_0" class="edge-thickness-normal edge-pattern-solid edge-thickness-normal edge-pattern-solid flowchart-link" style=";" data-edge="true" data-et="edge" data-id="L_ECS_E_Bureaus_0" data-points="W3sieCI6MTc4MC4zMDM5NDg5NjU5Mzk1LCJ5IjoxMDk4fSx7IngiOjE4MDYuMzE2NDA2MjUsInkiOjExMzV9LHsieCI6MTgwNi4zMTY0MDYyNSwieSI6MTE3Mn0seyJ4IjoxODA2LjMxNjQwNjI1LCJ5IjoxMTk3fSx7IngiOjE4MDYuMzE2NDA2MjUsInkiOjEzMDl9LHsieCI6MTgwNi4zMTY0MDYyNSwieSI6MTQyMX0seyJ4IjoxODA2LjMxNjQwNjI1LCJ5IjoxNDQ2fSx7IngiOjE4MDYuMzE2NDA2MjUsInkiOjE0NzF9LHsieCI6MTgwNi4zMTY0MDYyNSwieSI6MTUzMn0seyJ4IjoxODA2LjMxNjQwNjI1LCJ5IjoxNTkzfSx7IngiOjE4MDYuODE2NDA2MjUsInkiOjE2MTguNX1d" data-look="classic" marker-end="url(#my-svg_flowchart-v2-pointEnd)"/><path d="M896.675,1396L899.903,1400.167C903.13,1404.333,909.584,1412.667,912.812,1421C916.039,1429.333,916.039,1437.667,916.039,1446C916.039,1454.333,916.039,1462.667,916.039,1477C916.039,1491.333,916.039,1511.667,916.039,1532C916.039,1552.333,916.039,1572.667,1041.46,1595.939C1166.881,1619.211,1417.722,1645.422,1543.143,1658.528L1668.564,1671.633" id="my-svg-L_ECS_W_Bureaus_0" class="edge-thickness-normal edge-pattern-dotted edge-thickness-normal edge-pattern-solid flowchart-link" style=";" data-edge="true" data-et="edge" data-id="L_ECS_W_Bureaus_0" data-points="W3sieCI6ODk2LjY3NTIyMzIxNDI4NTcsInkiOjEzOTZ9LHsieCI6OTE2LjAzOTA2MjUsInkiOjE0MjF9LHsieCI6OTE2LjAzOTA2MjUsInkiOjE0NDZ9LHsieCI6OTE2LjAzOTA2MjUsInkiOjE0NzF9LHsieCI6OTE2LjAzOTA2MjUsInkiOjE1MzJ9LHsieCI6OTE2LjAzOTA2MjUsInkiOjE1OTN9LHsieCI6MTY3Mi41NDE5NzY3Mzc3MTQzLCJ5IjoxNjcyLjA0ODg1OTAyNDU3MTR9XQ==" data-look="classic" marker-end="url(#my-svg_flowchart-v2-pointEnd)"/><path d="M638.805,192.5L644.434,198.583C650.063,204.667,661.32,216.833,666.949,256.25C672.578,295.667,672.578,362.333,672.578,429C672.578,495.667,672.578,562.333,672.578,606.333C672.578,650.333,672.578,671.667,672.578,695C672.578,718.333,672.578,743.667,672.578,764.5C672.578,785.333,672.578,801.667,672.578,820.5C672.578,839.333,672.578,860.667,672.578,882C672.578,903.333,672.578,924.667,672.578,939.5C672.578,954.333,672.578,962.667,672.578,979.5C672.578,996.333,672.578,1021.667,672.578,1049C672.578,1076.333,672.578,1105.667,672.578,1126.5C672.578,1147.333,672.578,1159.667,672.578,1170C672.578,1180.333,672.578,1188.667,677.866,1196.612C683.153,1204.558,693.729,1212.116,699.016,1215.895L704.304,1219.674" id="my-svg-L_ARC_ECS_W_0" class="edge-thickness-normal edge-pattern-dotted edge-thickness-normal edge-pattern-solid flowchart-link" style=";" data-edge="true" data-et="edge" data-id="L_ARC_ECS_W_0" data-points="W3sieCI6NjM4LjgwNTA3NzcxMjQyMzMsInkiOjE5Mi41fSx7IngiOjY3Mi41NzgxMjUsInkiOjIyOX0seyJ4Ijo2NzIuNTc4MTI1LCJ5Ijo0Mjl9LHsieCI6NjcyLjU3ODEyNSwieSI6NjI5fSx7IngiOjY3Mi41NzgxMjUsInkiOjY5M30seyJ4Ijo2NzIuNTc4MTI1LCJ5Ijo3Njl9LHsieCI6NjcyLjU3ODEyNSwieSI6ODE4fSx7IngiOjY3Mi41NzgxMjUsInkiOjg4Mn0seyJ4Ijo2NzIuNTc4MTI1LCJ5Ijo5NDZ9LHsieCI6NjcyLjU3ODEyNSwieSI6OTcxfSx7IngiOjY3Mi41NzgxMjUsInkiOjEwNDd9LHsieCI6NjcyLjU3ODEyNSwieSI6MTEzNX0seyJ4Ijo2NzIuNTc4MTI1LCJ5IjoxMTcyfSx7IngiOjY3Mi41NzgxMjUsInkiOjExOTd9LHsieCI6NzA3LjU1ODI0NDk3NzY3ODYsInkiOjEyMjJ9XQ==" data-look="classic" marker-end="url(#my-svg_flowchart-v2-pointEnd)"/><path d="M498.041,192.5L492.751,198.583C487.461,204.667,476.881,216.833,471.591,256.25C466.301,295.667,466.301,362.333,466.301,429C466.301,495.667,466.301,562.333,466.301,606.333C466.301,650.333,466.301,671.667,466.301,695C466.301,718.333,466.301,743.667,466.301,764.5C466.301,785.333,466.301,801.667,466.301,820.5C466.301,839.333,466.301,860.667,466.301,882C466.301,903.333,466.301,924.667,466.301,939.5C466.301,954.333,466.301,962.667,466.301,979.5C466.301,996.333,466.301,1021.667,466.301,1049C466.301,1076.333,466.301,1105.667,466.301,1126.5C466.301,1147.333,466.301,1159.667,466.301,1170C466.301,1180.333,466.301,1188.667,466.301,1211.5C466.301,1234.333,466.301,1271.667,466.301,1309C466.301,1346.333,466.301,1383.667,466.301,1406.5C466.301,1429.333,466.301,1437.667,466.301,1446C466.301,1454.333,466.301,1462.667,466.301,1477C466.301,1491.333,466.301,1511.667,466.301,1532C466.301,1552.333,466.301,1572.667,466.767,1588.788C467.232,1604.909,468.164,1616.819,468.63,1622.773L469.095,1628.728" id="my-svg-L_ARC_READ_W1_0" class="edge-thickness-normal edge-pattern-dotted edge-thickness-normal edge-pattern-solid flowchart-link" style=";" data-edge="true" data-et="edge" data-id="L_ARC_READ_W1_0" data-points="W3sieCI6NDk4LjA0MDcxMDA4OTAzMjc2LCJ5IjoxOTIuNX0seyJ4Ijo0NjYuMzAwNzgxMjUsInkiOjIyOX0seyJ4Ijo0NjYuMzAwNzgxMjUsInkiOjQyOX0seyJ4Ijo0NjYuMzAwNzgxMjUsInkiOjYyOX0seyJ4Ijo0NjYuMzAwNzgxMjUsInkiOjY5M30seyJ4Ijo0NjYuMzAwNzgxMjUsInkiOjc2OX0seyJ4Ijo0NjYuMzAwNzgxMjUsInkiOjgxOH0seyJ4Ijo0NjYuMzAwNzgxMjUsInkiOjg4Mn0seyJ4Ijo0NjYuMzAwNzgxMjUsInkiOjk0Nn0seyJ4Ijo0NjYuMzAwNzgxMjUsInkiOjk3MX0seyJ4Ijo0NjYuMzAwNzgxMjUsInkiOjEwNDd9LHsieCI6NDY2LjMwMDc4MTI1LCJ5IjoxMTM1fSx7IngiOjQ2Ni4zMDA3ODEyNSwieSI6MTE3Mn0seyJ4Ijo0NjYuMzAwNzgxMjUsInkiOjExOTd9LHsieCI6NDY2LjMwMDc4MTI1LCJ5IjoxMzA5fSx7IngiOjQ2Ni4zMDA3ODEyNSwieSI6MTQyMX0seyJ4Ijo0NjYuMzAwNzgxMjUsInkiOjE0NDZ9LHsieCI6NDY2LjMwMDc4MTI1LCJ5IjoxNDcxfSx7IngiOjQ2Ni4zMDA3ODEyNSwieSI6MTUzMn0seyJ4Ijo0NjYuMzAwNzgxMjUsInkiOjE1OTN9LHsieCI6NDY5LjQwNzIwMzUyMDMxMDksInkiOjE2MzIuNzE1Nzg0NzMyNzExMn1d" data-look="classic" marker-end="url(#my-svg_flowchart-v2-pointEnd)"/><path d="M1394.463,187.5L1389.418,194.417C1384.373,201.333,1374.282,215.167,1318.154,246.375C1262.026,277.584,1159.86,326.167,1108.777,350.459L1057.694,374.751" id="my-svg-L_CW_E_R53_0" class="edge-thickness-normal edge-pattern-dotted edge-thickness-normal edge-pattern-solid flowchart-link" style=";" data-edge="true" data-et="edge" data-id="L_CW_E_R53_0" data-points="W3sieCI6MTM5NC40NjMzMTk1MjQ2NzUsInkiOjE4Ny41fSx7IngiOjEzNjQuMTkxNDA2MjUsInkiOjIyOX0seyJ4IjoxMDU0LjA4MTYxOTc0NDg1MSwieSI6Mzc2LjQ2ODMzODQ5NDg1MTF9XQ==" data-look="classic" marker-end="url(#my-svg_flowchart-v2-pointEnd)"/><path d="M1470.338,187.5L1472.291,194.417C1474.243,201.333,1478.147,215.167,1480.099,255.417C1482.051,295.667,1482.051,362.333,1482.051,429C1482.051,495.667,1482.051,562.333,1482.051,606.333C1482.051,650.333,1482.051,671.667,1482.051,695C1482.051,718.333,1482.051,743.667,1482.051,764.5C1482.051,785.333,1482.051,801.667,1482.051,820.5C1482.051,839.333,1482.051,860.667,1482.051,882C1482.051,903.333,1482.051,924.667,1482.051,939.5C1482.051,954.333,1482.051,962.667,1482.051,979.5C1482.051,996.333,1482.051,1021.667,1482.051,1049C1482.051,1076.333,1482.051,1105.667,1482.051,1126.5C1482.051,1147.333,1482.051,1159.667,1482.051,1170C1482.051,1180.333,1482.051,1188.667,1483.403,1205.63C1484.755,1222.592,1487.46,1248.185,1488.812,1260.981L1490.165,1273.777" id="my-svg-L_CW_E_WRITER_E_0" class="edge-thickness-normal edge-pattern-dotted edge-thickness-normal edge-pattern-solid flowchart-link" style=";" data-edge="true" data-et="edge" data-id="L_CW_E_WRITER_E_0" data-points="W3sieCI6MTQ3MC4zMzg0NTM2NDQ4NDY2LCJ5IjoxODcuNX0seyJ4IjoxNDgyLjA1MDc4MTI1LCJ5IjoyMjl9LHsieCI6MTQ4Mi4wNTA3ODEyNSwieSI6NDI5fSx7IngiOjE0ODIuMDUwNzgxMjUsInkiOjYyOX0seyJ4IjoxNDgyLjA1MDc4MTI1LCJ5Ijo2OTN9LHsieCI6MTQ4Mi4wNTA3ODEyNSwieSI6NzY5fSx7IngiOjE0ODIuMDUwNzgxMjUsInkiOjgxOH0seyJ4IjoxNDgyLjA1MDc4MTI1LCJ5Ijo4ODJ9LHsieCI6MTQ4Mi4wNTA3ODEyNSwieSI6OTQ2fSx7IngiOjE0ODIuMDUwNzgxMjUsInkiOjk3MX0seyJ4IjoxNDgyLjA1MDc4MTI1LCJ5IjoxMDQ3fSx7IngiOjE0ODIuMDUwNzgxMjUsInkiOjExMzV9LHsieCI6MTQ4Mi4wNTA3ODEyNSwieSI6MTE3Mn0seyJ4IjoxNDgyLjA1MDc4MTI1LCJ5IjoxMTk3fSx7IngiOjE0OTAuNTg0ODk0MjUzMjA3LCJ5IjoxMjc3Ljc1NTA1MjA0NzU0NzV9XQ==" data-look="classic" marker-end="url(#my-svg_flowchart-v2-pointEnd)"/><path d="M278.165,1360L299.295,1370.167C320.424,1380.333,362.683,1400.667,383.812,1415C404.941,1429.333,404.941,1437.667,404.941,1446C404.941,1454.333,404.941,1462.667,404.941,1477C404.941,1491.333,404.941,1511.667,404.941,1532C404.941,1552.333,404.941,1572.667,409.462,1589.192C413.982,1605.718,423.023,1618.435,427.543,1624.794L432.064,1631.153" id="my-svg-L_CW_W_READ_W1_0" class="edge-thickness-normal edge-pattern-dotted edge-thickness-normal edge-pattern-solid flowchart-link" style=";" data-edge="true" data-et="edge" data-id="L_CW_W_READ_W1_0" data-points="W3sieCI6Mjc4LjE2NTE0MzY5NDE5NjQ0LCJ5IjoxMzYwfSx7IngiOjQwNC45NDE0MDYyNSwieSI6MTQyMX0seyJ4Ijo0MDQuOTQxNDA2MjUsInkiOjE0NDZ9LHsieCI6NDA0Ljk0MTQwNjI1LCJ5IjoxNDcxfSx7IngiOjQwNC45NDE0MDYyNSwieSI6MTUzMn0seyJ4Ijo0MDQuOTQxNDA2MjUsInkiOjE1OTN9LHsieCI6NDM0LjM4MTE2OTYwMDc0NDUsInkiOjE2MzQuNDEyOTYyMjY1OTg2NH1d" data-look="classic" marker-end="url(#my-svg_flowchart-v2-pointEnd)"/><path d="M1823.331,1098L1832.869,1104.167C1842.407,1110.333,1861.483,1122.667,1871.021,1135C1880.559,1147.333,1880.559,1159.667,1880.559,1170C1880.559,1180.333,1880.559,1188.667,1905.96,1206.026C1931.361,1223.385,1982.164,1249.771,2007.565,1262.964L2032.967,1276.156" id="my-svg-L_ECS_E_NR_E_0" class="edge-thickness-normal edge-pattern-dotted edge-thickness-normal edge-pattern-solid flowchart-link" style=";" data-edge="true" data-et="edge" data-id="L_ECS_E_NR_E_0" data-points="W3sieCI6MTgyMy4zMzA2NzEyNjcwNzYsInkiOjEwOTh9LHsieCI6MTg4MC41NTg1OTM3NSwieSI6MTEzNX0seyJ4IjoxODgwLjU1ODU5Mzc1LCJ5IjoxMTcyfSx7IngiOjE4ODAuNTU4NTkzNzUsInkiOjExOTd9LHsieCI6MjAzNi41MTYzNTc0MjE4NzUsInkiOjEyNzh9XQ==" data-look="classic" marker-end="url(#my-svg_flowchart-v2-pointEnd)"/></g><g class="edgeLabels"><g class="edgeLabel"><g class="label" data-id="L_Client_R53_0" transform="translate(0, 0)"><foreignObject width="0" height="0"><div xmlns="http://www.w3.org/1999/xhtml" class="labelBkg" style="display: table-cell; white-space: nowrap; line-height: 1.5; max-width: 200px; text-align: center;"><span class="edgeLabel"></span></div></foreignObject></g></g><g class="edgeLabel" transform="translate(791.2585, 237.87059)"><g class="label" data-id="L_ARC_R53_0" transform="translate(-91.609375, -12)"><foreignObject width="183.21875" height="24"><div xmlns="http://www.w3.org/1999/xhtml" class="labelBkg" style="display: table-cell; white-space: nowrap; line-height: 1.5; max-width: 200px; text-align: center;"><span class="edgeLabel"><p>control manual de failover</p></span></div></foreignObject></g></g><g class="edgeLabel" transform="translate(1744.4489402770996, 629)"><g class="label" data-id="L_R53_APIGW_E_0" transform="translate(-71.1484375, -12)"><foreignObject width="142.296875" height="24"><div xmlns="http://www.w3.org/1999/xhtml" class="labelBkg" style="display: table-cell; white-space: nowrap; line-height: 1.5; max-width: 200px; text-align: center;"><span class="edgeLabel"><p>100% trafico normal</p></span></div></foreignObject></g></g><g class="edgeLabel"><g class="label" data-id="L_APIGW_E_ALB_E_0" transform="translate(0, 0)"><foreignObject width="0" height="0"><div xmlns="http://www.w3.org/1999/xhtml" class="labelBkg" style="display: table-cell; white-space: nowrap; line-height: 1.5; max-width: 200px; text-align: center;"><span class="edgeLabel"></span></div></foreignObject></g></g><g class="edgeLabel"><g class="label" data-id="L_ALB_E_ECS_E_0" transform="translate(0, 0)"><foreignObject width="0" height="0"><div xmlns="http://www.w3.org/1999/xhtml" class="labelBkg" style="display: table-cell; white-space: nowrap; line-height: 1.5; max-width: 200px; text-align: center;"><span class="edgeLabel"></span></div></foreignObject></g></g><g class="edgeLabel"><g class="label" data-id="L_ECS_E_WRITER_E_0" transform="translate(0, 0)"><foreignObject width="0" height="0"><div xmlns="http://www.w3.org/1999/xhtml" class="labelBkg" style="display: table-cell; white-space: nowrap; line-height: 1.5; max-width: 200px; text-align: center;"><span class="edgeLabel"></span></div></foreignObject></g></g><g class="edgeLabel" transform="translate(1642.86328125, 1135)"><g class="label" data-id="L_ECS_E_READ_E1_0" transform="translate(-20.015625, -12)"><foreignObject width="40.03125" height="24"><div xmlns="http://www.w3.org/1999/xhtml" class="labelBkg" style="display: table-cell; white-space: nowrap; line-height: 1.5; max-width: 200px; text-align: center;"><span class="edgeLabel"><p>reads</p></span></div></foreignObject></g></g><g class="edgeLabel" transform="translate(943.61328125, 693)"><g class="label" data-id="L_R53_APIGW_W_0" transform="translate(-100, -24)"><foreignObject width="200" height="48"><div xmlns="http://www.w3.org/1999/xhtml" class="labelBkg" style="display: table; white-space: break-spaces; line-height: 1.5; max-width: 200px; text-align: center; width: 200px;"><span class="edgeLabel"><p>failover path inactivo hasta ARC</p></span></div></foreignObject></g></g><g class="edgeLabel"><g class="label" data-id="L_APIGW_W_ALB_W_0" transform="translate(0, 0)"><foreignObject width="0" height="0"><div xmlns="http://www.w3.org/1999/xhtml" class="labelBkg" style="display: table-cell; white-space: nowrap; line-height: 1.5; max-width: 200px; text-align: center;"><span class="edgeLabel"></span></div></foreignObject></g></g><g class="edgeLabel"><g class="label" data-id="L_ALB_W_ECS_W_0" transform="translate(0, 0)"><foreignObject width="0" height="0"><div xmlns="http://www.w3.org/1999/xhtml" class="labelBkg" style="display: table-cell; white-space: nowrap; line-height: 1.5; max-width: 200px; text-align: center;"><span class="edgeLabel"></span></div></foreignObject></g></g><g class="edgeLabel" transform="translate(758.85546875, 1532)"><g class="label" data-id="L_ECS_W_READ_W1_0" transform="translate(-71.1484375, -12)"><foreignObject width="142.296875" height="24"><div xmlns="http://www.w3.org/1999/xhtml" class="labelBkg" style="display: table-cell; white-space: nowrap; line-height: 1.5; max-width: 200px; text-align: center;"><span class="edgeLabel"><p>read-only en normal</p></span></div></foreignObject></g></g><g class="edgeLabel" transform="translate(1028.29346, 1498.99926)"><g class="label" data-id="L_WRITER_E_READ_W1_0" transform="translate(-90.703125, -36)"><foreignObject width="181.40625" height="72"><div xmlns="http://www.w3.org/1999/xhtml" class="labelBkg" style="display: table-cell; white-space: nowrap; line-height: 1.5; max-width: 200px; text-align: center;"><span class="edgeLabel"><p>replicacion continua<br />lag sub-segundo<br />RPO real menor a 15 min</p></span></div></foreignObject></g></g><g class="edgeLabel" transform="translate(1348.01093, 1490.74889)"><g class="label" data-id="L_S3_E_S3_W_0" transform="translate(-17.3359375, -12)"><foreignObject width="34.671875" height="24"><div xmlns="http://www.w3.org/1999/xhtml" class="labelBkg" style="display: table-cell; white-space: nowrap; line-height: 1.5; max-width: 200px; text-align: center;"><span class="edgeLabel"><p>CRR</p></span></div></foreignObject></g></g><g class="edgeLabel" transform="translate(1806.31640625, 1309)"><g class="label" data-id="L_ECS_E_Bureaus_0" transform="translate(-74.7109375, -12)"><foreignObject width="149.421875" height="24"><div xmlns="http://www.w3.org/1999/xhtml" class="labelBkg" style="display: table-cell; white-space: nowrap; line-height: 1.5; max-width: 200px; text-align: center;"><span class="edgeLabel"><p>consultas originacion</p></span></div></foreignObject></g></g><g class="edgeLabel" transform="translate(916.0390625, 1532)"><g class="label" data-id="L_ECS_W_Bureaus_0" transform="translate(-55.1484375, -12)"><foreignObject width="110.296875" height="24"><div xmlns="http://www.w3.org/1999/xhtml" class="labelBkg" style="display: table-cell; white-space: nowrap; line-height: 1.5; max-width: 200px; text-align: center;"><span class="edgeLabel"><p>durante failover</p></span></div></foreignObject></g></g><g class="edgeLabel" transform="translate(672.578125, 769)"><g class="label" data-id="L_ARC_ECS_W_0" transform="translate(-100, -24)"><foreignObject width="200" height="48"><div xmlns="http://www.w3.org/1999/xhtml" class="labelBkg" style="display: table; white-space: break-spaces; line-height: 1.5; max-width: 200px; text-align: center; width: 200px;"><span class="edgeLabel"><p>valida capacidad/cuota ECS</p></span></div></foreignObject></g></g><g class="edgeLabel" transform="translate(466.30078125, 882)"><g class="label" data-id="L_ARC_READ_W1_0" transform="translate(-83.609375, -12)"><foreignObject width="167.21875" height="24"><div xmlns="http://www.w3.org/1999/xhtml" class="labelBkg" style="display: table-cell; white-space: nowrap; line-height: 1.5; max-width: 200px; text-align: center;"><span class="edgeLabel"><p>valida readiness Aurora</p></span></div></foreignObject></g></g><g class="edgeLabel" transform="translate(1232.33133, 291.7042)"><g class="label" data-id="L_CW_E_R53_0" transform="translate(-58.703125, -12)"><foreignObject width="117.40625" height="24"><div xmlns="http://www.w3.org/1999/xhtml" class="labelBkg" style="display: table-cell; white-space: nowrap; line-height: 1.5; max-width: 200px; text-align: center;"><span class="edgeLabel"><p>alerta caida east</p></span></div></foreignObject></g></g><g class="edgeLabel" transform="translate(1482.05078125, 769)"><g class="label" data-id="L_CW_E_WRITER_E_0" transform="translate(-28.4609375, -12)"><foreignObject width="56.921875" height="24"><div xmlns="http://www.w3.org/1999/xhtml" class="labelBkg" style="display: table-cell; white-space: nowrap; line-height: 1.5; max-width: 200px; text-align: center;"><span class="edgeLabel"><p>observa</p></span></div></foreignObject></g></g><g class="edgeLabel" transform="translate(404.94140625, 1532)"><g class="label" data-id="L_CW_W_READ_W1_0" transform="translate(-41.359375, -12)"><foreignObject width="82.71875" height="24"><div xmlns="http://www.w3.org/1999/xhtml" class="labelBkg" style="display: table-cell; white-space: nowrap; line-height: 1.5; max-width: 200px; text-align: center;"><span class="edgeLabel"><p>observa lag</p></span></div></foreignObject></g></g><g class="edgeLabel" transform="translate(1880.55859375, 1135)"><g class="label" data-id="L_ECS_E_NR_E_0" transform="translate(-54.2421875, -12)"><foreignObject width="108.484375" height="24"><div xmlns="http://www.w3.org/1999/xhtml" class="labelBkg" style="display: table-cell; white-space: nowrap; line-height: 1.5; max-width: 200px; text-align: center;"><span class="edgeLabel"><p>telemetria APM</p></span></div></foreignObject></g></g></g><g class="nodes"><g class="node default external" id="my-svg-flowchart-Client-0" data-look="classic" transform="translate(943.61328125, 112.5)"><g class="basic label-container outer-path"><path d="M-83.875 -31.5 C-22.461215700581192 -31.5, 38.952568598837615 -31.5, 83.875 -31.5 C83.875 -31.5, 83.875 -31.5, 83.875 -31.5 C84.34367348895478 -31.484970553426827, 84.81234697790957 -31.46994110685365, 85.89321192939245 -31.435279871635593 C86.69674013656109 -31.35776447187409, 87.50026834372974 -31.28024907211259, 87.90313059306193 -31.241385435432253 C88.64153911074317 -31.12200527273713, 89.3799476284244 -31.002625110042008, 89.89649680409322 -30.91911344521856 C90.30052514225653 -30.826896613564088, 90.70455348041985 -30.734679781909616, 91.86511939314947 -30.469788185729428 C92.50801545661248 -30.27898000872391, 93.15091152007548 -30.08817183171839, 93.80090886774406 -29.895256030836062 C94.50109220788134 -29.637582089241697, 95.20127554801861 -29.379908147647335, 95.69591065370028 -29.197877856399685 C96.14853303009251 -28.997515356936596, 96.60115540648474 -28.797152857473506, 97.54233778220308 -28.380519338926202 C98.19108568660539 -28.042067972742384, 98.83983359100769 -27.703616606558565, 99.33260288812403 -27.44653917988677 C99.98075921501041 -27.05362300553888, 100.62891554189677 -26.660706831190993, 101.05934938813228 -26.399775304092984 C101.45088807392233 -26.126654866322376, 101.84242675971237 -25.853534428551768, 102.7154817104733 -25.244529088840633 C103.0557345997829 -24.97318646412588, 103.39598748909249 -24.701843839411126, 104.29419445219533 -23.985547688627737 C104.87392576278621 -23.459051051199033, 105.4536570733771 -22.932554413770326, 105.78900034400982 -22.62800452807842 C106.19564887789437 -22.208106530377087, 106.60229741177892 -21.788208532675757, 107.19375690787243 -21.177478043231485 C107.68113954281925 -20.604970667365382, 108.16852217776608 -20.03246329149928, 108.50269169774293 -19.63992875855011 C108.84005854521945 -19.18788791768365, 109.17742539269598 -18.73584707681719, 109.7104260198041 -18.02167479384835 C110.04999643131136 -17.500003454350264, 110.38956684281862 -16.97833211485218, 110.8119970346684 -16.329365901781543 C111.16473537018173 -15.703043268447951, 111.51747370569507 -15.076720635114361, 111.8028781507495 -14.56995614258631 C112.03713306765206 -14.083520795385882, 112.27138798455461 -13.597085448185455, 112.67899762499809 -12.750675308355413 C112.85025493218399 -12.327666448571446, 113.0215122393699 -11.904657588787478, 113.43675529456745 -10.878999214271206 C113.59945760580833 -10.38896577590656, 113.7621599170492 -9.898932337541913, 114.07303737065482 -8.962618978877531 C114.21023328097954 -8.439431511725715, 114.34742919130424 -7.9162440445739, 114.58522923372745 -7.009409419623907 C114.68004730186479 -6.522538679544467, 114.77486537000212 -6.035667939465028, 114.97122617755518 -5.027396693551458 C115.03105433733974 -4.563381300668832, 115.09088249712431 -4.099365907786207, 115.22944205789975 -3.024725316091981 C115.27598212935767 -2.2998261366652435, 115.3225222008156 -1.5749269572385056, 115.35881581032167 -1.0096246935071378 C115.35881581032167 -0.5549121647097776, 115.35881581032167 -0.10019963591241732, 115.35881581032167 1.00962469350713 C115.3107552034319 1.7582074396389302, 115.26269459654213 2.50679018577073, 115.22944205789975 3.02472531609196 C115.1395548054246 3.7218730960435384, 115.04966755294944 4.419020875995117, 114.97122617755518 5.027396693551435 C114.88572282964755 5.466438313918135, 114.80021948173992 5.905479934284836, 114.58522923372745 7.0094094196239 C114.47088453073334 7.445455329448174, 114.35653982773924 7.881501239272447, 114.07303737065482 8.96261897887751 C113.856853357677 9.613730781721868, 113.64066934469918 10.264842584566225, 113.43675529456746 10.878999214271184 C113.15957204689072 11.563647195006261, 112.88238879921397 12.248295175741337, 112.67899762499809 12.750675308355405 C112.35277466207461 13.428084270919236, 112.02655169915113 14.105493233483067, 111.8028781507495 14.569956142586303 C111.52856804257777 15.057021516555698, 111.25425793440604 15.544086890525092, 110.81199703466841 16.329365901781536 C110.56880153942822 16.702979489604804, 110.32560604418802 17.07659307742807, 109.71042601980412 18.021674793848334 C109.23865612804374 18.65380346968593, 108.76688623628337 19.285932145523525, 108.50269169774295 19.639928758550102 C108.02380261676406 20.20245912262855, 107.54491353578518 20.764989486706998, 107.19375690787246 21.177478043231467 C106.774050093647 21.610859787489524, 106.35434327942157 22.044241531747584, 105.78900034400982 22.628004528078414 C105.46859423513256 22.91898887867966, 105.14818812625529 23.2099732292809, 104.29419445219536 23.985547688627715 C103.85550284661656 24.335392570002906, 103.41681124103775 24.685237451378097, 102.71548171047331 25.24452908884063 C102.28614686236811 25.544014493272783, 101.85681201426293 25.843499897704937, 101.05934938813229 26.399775304092973 C100.58018883997978 26.690245244242966, 100.10102829182726 26.980715184392956, 99.33260288812404 27.446539179886766 C98.67796800452656 27.788061779345913, 98.0233331209291 28.129584378805063, 97.54233778220309 28.3805193389262 C96.86480001714236 28.680445209074886, 96.18726225208162 28.98037107922357, 95.6959106537003 29.197877856399682 C95.24439312793848 29.364040479662286, 94.79287560217666 29.53020310292489, 93.80090886774407 29.895256030836055 C93.38968286821051 30.017305748928294, 92.97845686867696 30.139355467020536, 91.86511939314951 30.46978818572942 C91.44980891951724 30.56458009118187, 91.03449844588495 30.65937199663432, 89.89649680409323 30.919113445218557 C89.1654080091222 31.03731021191119, 88.43431921415117 31.155506978603825, 87.90313059306196 31.24138543543225 C87.25823233036209 31.30359799523127, 86.61333406766222 31.36581055503029, 85.89321192939245 31.435279871635593 C85.37938424014767 31.45175732552475, 84.86555655090291 31.468234779413905, 83.875 31.5 C83.875 31.5, 83.875 31.5, 83.875 31.5 C42.61377746216444 31.5, 1.352554924328885 31.5, -83.875 31.5 C-84.42242414085234 31.482445173299315, -84.96984828170469 31.46489034659863, -85.89321192939244 31.435279871635593 C-86.59291973096595 31.367779901539546, -87.29262753253946 31.3002799314435, -87.90313059306195 31.24138543543225 C-88.37362243667779 31.16531996287518, -88.84411428029364 31.089254490318112, -89.89649680409323 30.919113445218557 C-90.49175282694128 30.783250142412058, -91.08700884978933 30.647386839605556, -91.86511939314947 30.469788185729428 C-92.53684713212026 30.270422918773754, -93.20857487109103 30.07105765181808, -93.80090886774403 29.89525603083607 C-94.24939726414526 29.730208155179128, -94.69788566054649 29.565160279522182, -95.69591065370028 29.197877856399685 C-96.10686897988532 29.01595879604318, -96.51782730607037 28.834039735686673, -97.54233778220308 28.380519338926206 C-98.07338778245055 28.10347089395086, -98.60443778269801 27.826422448975514, -99.33260288812403 27.446539179886773 C-99.89421762642766 27.106085025112566, -100.45583236473131 26.765630870338356, -101.05934938813226 26.399775304092994 C-101.66157060784482 25.97969185095794, -102.26379182755738 25.559608397822885, -102.7154817104733 25.244529088840636 C-103.2157130082645 24.845607940566047, -103.71594430605569 24.44668679229146, -104.29419445219533 23.98554768862774 C-104.62015023937082 23.689523267032495, -104.9461060265463 23.393498845437247, -105.7890003440098 22.628004528078435 C-106.11330230417933 22.293136128517297, -106.43760426434886 21.958267728956162, -107.19375690787244 21.177478043231478 C-107.65222321700324 20.63893742905442, -108.11068952613405 20.100396814877364, -108.50269169774293 19.639928758550113 C-108.83455352109088 19.19526414849793, -109.16641534443882 18.750599538445748, -109.7104260198041 18.021674793848355 C-110.07001823775477 17.46924458304537, -110.42961045570544 16.91681437224238, -110.8119970346684 16.329365901781557 C-111.07523106268886 15.861967229695475, -111.33846509070933 15.394568557609391, -111.8028781507495 14.569956142586314 C-112.00279629253887 14.154821843597718, -112.20271443432823 13.739687544609122, -112.67899762499809 12.750675308355417 C-112.91452099496357 12.168928031006109, -113.15004436492904 11.587180753656801, -113.43675529456745 10.878999214271209 C-113.65745123801081 10.21429819574317, -113.87814718145415 9.549597177215134, -114.07303737065482 8.962618978877522 C-114.24142270891494 8.320492705424419, -114.40980804717506 7.678366431971316, -114.58522923372743 7.009409419623911 C-114.71493175505589 6.343414385239931, -114.84463427638434 5.677419350855951, -114.97122617755518 5.027396693551461 C-115.0232335144936 4.6240380582674225, -115.07524085143201 4.220679422983384, -115.22944205789975 3.024725316091999 C-115.28077731298251 2.225137281105879, -115.33211256806527 1.4255492461197594, -115.35881581032167 1.0096246935071416 C-115.35881581032167 0.5430054181420929, -115.35881581032167 0.07638614277704436, -115.35881581032167 -1.0096246935071262 C-115.32168249800948 -1.5880060062396926, -115.28454918569729 -2.1663873189722587, -115.22944205789975 -3.024725316091956 C-115.13827272831459 -3.731816632934028, -115.04710339872942 -4.438907949776101, -114.97122617755518 -5.027396693551446 C-114.8418636573607 -5.691645893971789, -114.71250113716621 -6.355895094392133, -114.58522923372745 -7.009409419623896 C-114.41135178675108 -7.672479483906964, -114.23747433977474 -8.335549548190032, -114.07303737065482 -8.962618978877506 C-113.84270281505451 -9.656349961518009, -113.61236825945419 -10.350080944158512, -113.43675529456746 -10.878999214271168 C-113.17675161012409 -11.52121334167558, -112.9167479256807 -12.163427469079991, -112.67899762499809 -12.750675308355401 C-112.4012721564174 -13.327378186236285, -112.12354668783671 -13.904081064117166, -111.8028781507495 -14.5699561425863 C-111.49936559501644 -15.108873419269305, -111.19585303928338 -15.647790695952308, -110.8119970346684 -16.329365901781546 C-110.44688989016883 -16.890268520728767, -110.08178274566927 -17.451171139675985, -109.71042601980412 -18.021674793848344 C-109.29789558878758 -18.5744279891151, -108.88536515777103 -19.12718118438186, -108.50269169774295 -19.639928758550102 C-108.03183188067827 -20.19302749235687, -107.56097206361359 -20.746126226163632, -107.19375690787246 -21.177478043231467 C-106.83113531016387 -21.551914614652432, -106.46851371245528 -21.926351186073397, -105.78900034400984 -22.628004528078403 C-105.48555035062638 -22.9035897832224, -105.18210035724292 -23.179175038366402, -104.29419445219536 -23.98554768862771 C-103.68157903998383 -24.474092177485623, -103.06896362777232 -24.962636666343535, -102.71548171047331 -25.244529088840626 C-102.3534555847435 -25.497062842291346, -101.99142945901369 -25.749596595742066, -101.0593493881323 -26.39977530409297 C-100.57921909478249 -26.69083310948042, -100.09908880143267 -26.98189091486787, -99.33260288812404 -27.446539179886763 C-98.84228071318384 -27.702339944486727, -98.35195853824364 -27.958140709086692, -97.54233778220309 -28.3805193389262 C-97.15855090856695 -28.550410403251806, -96.77476403493083 -28.72030146757741, -95.6959106537003 -29.19787785639968 C-95.10765757047369 -29.414360428778963, -94.51940448724707 -29.630843001158247, -93.80090886774407 -29.895256030836055 C-93.0494562733329 -30.118283216402133, -92.29800367892173 -30.341310401968208, -91.86511939314951 -30.469788185729417 C-91.21443555179177 -30.61830252641044, -90.56375171043403 -30.766816867091457, -89.89649680409325 -30.919113445218553 C-89.47583683838039 -30.987122486208253, -89.05517687266753 -31.05513152719795, -87.90313059306196 -31.24138543543225 C-87.19388221861023 -31.309805773119642, -86.4846338441585 -31.37822611080703, -85.89321192939246 -31.435279871635593 C-85.2578208307665 -31.45565562745478, -84.62242973214053 -31.47603138327397, -83.87500000000001 -31.5 C-83.87500000000001 -31.5, -83.875 -31.5, -83.875 -31.5" stroke="none" stroke-width="0" fill="#e2e3e5" style="fill:#e2e3e5 !important;stroke:#383d41 !important;stroke-width:2px !important"/><path d="M-83.875 -31.5 C-26.164036138475034 -31.5, 31.546927723049933 -31.5, 83.875 -31.5 M-83.875 -31.5 C-18.115051587056485 -31.5, 47.64489682588703 -31.5, 83.875 -31.5 M83.875 -31.5 C83.875 -31.5, 83.875 -31.5, 83.875 -31.5 M83.875 -31.5 C83.875 -31.5, 83.875 -31.5, 83.875 -31.5 M83.875 -31.5 C84.5096940403881 -31.479646597481757, 85.14438808077618 -31.459293194963518, 85.89321192939245 -31.435279871635593 M83.875 -31.5 C84.56668674397636 -31.47781895240725, 85.25837348795271 -31.455637904814502, 85.89321192939245 -31.435279871635593 M85.89321192939245 -31.435279871635593 C86.44089289108308 -31.382445747944022, 86.98857385277371 -31.329611624252454, 87.90313059306193 -31.241385435432253 M85.89321192939245 -31.435279871635593 C86.49838425317243 -31.376899625386745, 87.1035565769524 -31.318519379137893, 87.90313059306193 -31.241385435432253 M87.90313059306193 -31.241385435432253 C88.68366250562582 -31.11519508892431, 89.46419441818969 -30.98900474241637, 89.89649680409322 -30.91911344521856 M87.90313059306193 -31.241385435432253 C88.42603172578619 -31.156846835452242, 88.94893285851046 -31.07230823547223, 89.89649680409322 -30.91911344521856 M89.89649680409322 -30.91911344521856 C90.667848525302 -30.743057448393046, 91.43920024651078 -30.56700145156753, 91.86511939314947 -30.469788185729428 M89.89649680409322 -30.91911344521856 C90.36921897630347 -30.811217694212033, 90.84194114851373 -30.703321943205506, 91.86511939314947 -30.469788185729428 M91.86511939314947 -30.469788185729428 C92.37195292901687 -30.3193626527075, 92.87878646488429 -30.168937119685577, 93.80090886774406 -29.895256030836062 M91.86511939314947 -30.469788185729428 C92.51451228896374 -30.27705178298462, 93.16390518477802 -30.08431538023982, 93.80090886774406 -29.895256030836062 M93.80090886774406 -29.895256030836062 C94.28009860874911 -29.718909776564793, 94.75928834975417 -29.542563522293523, 95.69591065370028 -29.197877856399685 M93.80090886774406 -29.895256030836062 C94.52898956075845 -29.627315605502616, 95.25707025377285 -29.35937518016917, 95.69591065370028 -29.197877856399685 M95.69591065370028 -29.197877856399685 C96.1435546683334 -28.9997191300095, 96.59119868296652 -28.801560403619312, 97.54233778220308 -28.380519338926202 M95.69591065370028 -29.197877856399685 C96.27710994739365 -28.940598169746117, 96.85830924108703 -28.683318483092545, 97.54233778220308 -28.380519338926202 M97.54233778220308 -28.380519338926202 C98.09460048302681 -28.092404241647607, 98.64686318385053 -27.80428914436901, 99.33260288812403 -27.44653917988677 M97.54233778220308 -28.380519338926202 C98.07528019292121 -28.102483624620458, 98.60822260363933 -27.824447910314717, 99.33260288812403 -27.44653917988677 M99.33260288812403 -27.44653917988677 C99.93547129647604 -27.081076807895766, 100.53833970482805 -26.715614435904758, 101.05934938813228 -26.399775304092984 M99.33260288812403 -27.44653917988677 C99.79176187043741 -27.16819430649071, 100.25092085275078 -26.889849433094653, 101.05934938813228 -26.399775304092984 M101.05934938813228 -26.399775304092984 C101.42875376896237 -26.14209479928382, 101.79815814979246 -25.884414294474663, 102.7154817104733 -25.244529088840633 M101.05934938813228 -26.399775304092984 C101.64005494758759 -25.99470024415547, 102.2207605070429 -25.589625184217955, 102.7154817104733 -25.244529088840633 M102.7154817104733 -25.244529088840633 C103.19911527208052 -24.85884419348846, 103.68274883368774 -24.47315929813628, 104.29419445219533 -23.985547688627737 M102.7154817104733 -25.244529088840633 C103.16429586388958 -24.88661174493737, 103.61311001730584 -24.528694401034105, 104.29419445219533 -23.985547688627737 M104.29419445219533 -23.985547688627737 C104.67852380099973 -23.63650994284092, 105.06285314980413 -23.287472197054104, 105.78900034400982 -22.62800452807842 M104.29419445219533 -23.985547688627737 C104.78007324585717 -23.544285423872466, 105.26595203951901 -23.103023159117196, 105.78900034400982 -22.62800452807842 M105.78900034400982 -22.62800452807842 C106.11468604063847 -22.291707307016353, 106.44037173726714 -21.955410085954284, 107.19375690787243 -21.177478043231485 M105.78900034400982 -22.62800452807842 C106.2266009692402 -22.176145954848554, 106.66420159447058 -21.72428738161869, 107.19375690787243 -21.177478043231485 M107.19375690787243 -21.177478043231485 C107.49661099413069 -20.82172840062684, 107.79946508038896 -20.465978758022192, 108.50269169774293 -19.63992875855011 M107.19375690787243 -21.177478043231485 C107.6576431301636 -20.632570890654456, 108.12152935245479 -20.087663738077428, 108.50269169774293 -19.63992875855011 M108.50269169774293 -19.63992875855011 C108.96232275203333 -19.02406501905143, 109.42195380632374 -18.40820127955275, 109.7104260198041 -18.02167479384835 M108.50269169774293 -19.63992875855011 C108.87983879461774 -19.134586007545227, 109.25698589149253 -18.62924325654035, 109.7104260198041 -18.02167479384835 M109.7104260198041 -18.02167479384835 C110.0391445788083 -17.516674813925384, 110.36786313781249 -17.011674834002417, 110.8119970346684 -16.329365901781543 M109.7104260198041 -18.02167479384835 C109.99964163340734 -17.577361946087365, 110.28885724701057 -17.133049098326378, 110.8119970346684 -16.329365901781543 M110.8119970346684 -16.329365901781543 C111.04802678386287 -15.910271181482972, 111.28405653305732 -15.491176461184402, 111.8028781507495 -14.56995614258631 M110.8119970346684 -16.329365901781543 C111.07941899786124 -15.854531126722478, 111.3468409610541 -15.379696351663412, 111.8028781507495 -14.56995614258631 M111.8028781507495 -14.56995614258631 C111.98912303467877 -14.183214656105077, 112.17536791860802 -13.796473169623845, 112.67899762499809 -12.750675308355413 M111.8028781507495 -14.56995614258631 C112.07496773019011 -14.004956309093535, 112.3470573096307 -13.439956475600757, 112.67899762499809 -12.750675308355413 M112.67899762499809 -12.750675308355413 C112.98066227206249 -12.005557797817172, 113.28232691912689 -11.260440287278929, 113.43675529456745 -10.878999214271206 M112.67899762499809 -12.750675308355413 C112.85520454581729 -12.315440807202949, 113.03141146663648 -11.880206306050482, 113.43675529456745 -10.878999214271206 M113.43675529456745 -10.878999214271206 C113.61900771163695 -10.33008397203708, 113.80126012870646 -9.781168729802957, 114.07303737065482 -8.962618978877531 M113.43675529456745 -10.878999214271206 C113.62179926914816 -10.321676245587632, 113.80684324372886 -9.764353276904059, 114.07303737065482 -8.962618978877531 M114.07303737065482 -8.962618978877531 C114.24517961042105 -8.306166011730246, 114.41732185018726 -7.6497130445829615, 114.58522923372745 -7.009409419623907 M114.07303737065482 -8.962618978877531 C114.22429493213887 -8.385808341496952, 114.37555249362295 -7.808997704116374, 114.58522923372745 -7.009409419623907 M114.58522923372745 -7.009409419623907 C114.68507133428058 -6.496741334918989, 114.78491343483371 -5.984073250214069, 114.97122617755518 -5.027396693551458 M114.58522923372745 -7.009409419623907 C114.67656191090121 -6.540435425504751, 114.76789458807498 -6.071461431385596, 114.97122617755518 -5.027396693551458 M114.97122617755518 -5.027396693551458 C115.05176292927942 -4.402769550958736, 115.13229968100366 -3.778142408366014, 115.22944205789975 -3.024725316091981 M114.97122617755518 -5.027396693551458 C115.03479384003083 -4.5343784562450775, 115.09836150250648 -4.041360218938697, 115.22944205789975 -3.024725316091981 M115.22944205789975 -3.024725316091981 C115.28002356748678 -2.2368774756142678, 115.33060507707381 -1.4490296351365544, 115.35881581032167 -1.0096246935071378 M115.22944205789975 -3.024725316091981 C115.27423179241363 -2.32708904741529, 115.31902152692751 -1.6294527787385986, 115.35881581032167 -1.0096246935071378 M115.35881581032167 -1.0096246935071378 C115.35881581032167 -0.22576265251118377, 115.35881581032167 0.5580993884847703, 115.35881581032167 1.00962469350713 M115.35881581032167 -1.0096246935071378 C115.35881581032167 -0.43993387041600573, 115.35881581032167 0.12975695267512632, 115.35881581032167 1.00962469350713 M115.35881581032167 1.00962469350713 C115.3153724891866 1.686289487003632, 115.27192916805151 2.3629542805001336, 115.22944205789975 3.02472531609196 M115.35881581032167 1.00962469350713 C115.31479189599126 1.6953326946672442, 115.27076798166085 2.3810406958273584, 115.22944205789975 3.02472531609196 M115.22944205789975 3.02472531609196 C115.13427244222368 3.7628420619092755, 115.0391028265476 4.500958807726591, 114.97122617755518 5.027396693551435 M115.22944205789975 3.02472531609196 C115.15282282496565 3.6189689565499403, 115.07620359203155 4.213212597007921, 114.97122617755518 5.027396693551435 M114.97122617755518 5.027396693551435 C114.8352794261615 5.725454529601916, 114.69933267476782 6.423512365652396, 114.58522923372745 7.0094094196239 M114.97122617755518 5.027396693551435 C114.84349243004027 5.683282490503438, 114.71575868252535 6.339168287455441, 114.58522923372745 7.0094094196239 M114.58522923372745 7.0094094196239 C114.44417916914581 7.547294447358362, 114.30312910456418 8.085179475092824, 114.07303737065482 8.96261897887751 M114.58522923372745 7.0094094196239 C114.39416328998277 7.738026671626203, 114.20309734623808 8.466643923628506, 114.07303737065482 8.96261897887751 M114.07303737065482 8.96261897887751 C113.85345325286396 9.623971355685617, 113.63386913507308 10.285323732493724, 113.43675529456746 10.878999214271184 M114.07303737065482 8.96261897887751 C113.83654621907047 9.674892647701588, 113.60005506748611 10.387166316525667, 113.43675529456746 10.878999214271184 M113.43675529456746 10.878999214271184 C113.16500009441198 11.550239812684588, 112.8932448942565 12.221480411097989, 112.67899762499809 12.750675308355405 M113.43675529456746 10.878999214271184 C113.22518516513354 11.401581524403152, 113.01361503569962 11.924163834535122, 112.67899762499809 12.750675308355405 M112.67899762499809 12.750675308355405 C112.34817875799632 13.43762776407441, 112.01735989099454 14.124580219793415, 111.8028781507495 14.569956142586303 M112.67899762499809 12.750675308355405 C112.49607937978529 13.130508958363261, 112.31316113457248 13.510342608371118, 111.8028781507495 14.569956142586303 M111.8028781507495 14.569956142586303 C111.48421054637969 15.135782742738941, 111.16554294200988 15.70160934289158, 110.81199703466841 16.329365901781536 M111.8028781507495 14.569956142586303 C111.5340927295243 15.047211875446909, 111.2653073082991 15.524467608307514, 110.81199703466841 16.329365901781536 M110.81199703466841 16.329365901781536 C110.55900452096428 16.71803034083322, 110.30601200726016 17.1066947798849, 109.71042601980412 18.021674793848334 M110.81199703466841 16.329365901781536 C110.4298345308574 16.916470132636366, 110.0476720270464 17.5035743634912, 109.71042601980412 18.021674793848334 M109.71042601980412 18.021674793848334 C109.31226198269117 18.555178330089685, 108.91409794557822 19.088681866331036, 108.50269169774295 19.639928758550102 M109.71042601980412 18.021674793848334 C109.44578032530578 18.376275914757354, 109.18113463080743 18.730877035666378, 108.50269169774295 19.639928758550102 M108.50269169774295 19.639928758550102 C108.06339003654865 20.155957486761572, 107.62408837535436 20.671986214973042, 107.19375690787246 21.177478043231467 M108.50269169774295 19.639928758550102 C108.23692295478604 19.95211584669716, 107.97115421182914 20.264302934844217, 107.19375690787246 21.177478043231467 M107.19375690787246 21.177478043231467 C106.90905712185922 21.47145394657726, 106.624357335846 21.76542984992305, 105.78900034400982 22.628004528078414 M107.19375690787246 21.177478043231467 C106.6643809453034 21.72410218715883, 106.13500498273434 22.270726331086195, 105.78900034400982 22.628004528078414 M105.78900034400982 22.628004528078414 C105.2363149743995 23.129938757504956, 104.68362960478919 23.631872986931498, 104.29419445219536 23.985547688627715 M105.78900034400982 22.628004528078414 C105.29184495622486 23.07950789725397, 104.7946895684399 23.531011266429523, 104.29419445219536 23.985547688627715 M104.29419445219536 23.985547688627715 C103.9003333658019 24.29964142394281, 103.50647227940844 24.613735159257907, 102.71548171047331 25.24452908884063 M104.29419445219536 23.985547688627715 C103.85118044834756 24.33883956759858, 103.40816644449977 24.692131446569444, 102.71548171047331 25.24452908884063 M102.71548171047331 25.24452908884063 C102.16508402757927 25.628462686095837, 101.61468634468523 26.01239628335104, 101.05934938813229 26.399775304092973 M102.71548171047331 25.24452908884063 C102.10351191672692 25.67141272521271, 101.49154212298053 26.09829636158479, 101.05934938813229 26.399775304092973 M101.05934938813229 26.399775304092973 C100.45256255474494 26.767613048367625, 99.84577572135758 27.13545079264228, 99.33260288812404 27.446539179886766 M101.05934938813229 26.399775304092973 C100.41873417823216 26.78812000900728, 99.77811896833202 27.17646471392159, 99.33260288812404 27.446539179886766 M99.33260288812404 27.446539179886766 C98.7934628078923 27.727808214407965, 98.25432272766055 28.009077248929167, 97.54233778220309 28.3805193389262 M99.33260288812404 27.446539179886766 C98.68027853911771 27.786856374929684, 98.02795419011137 28.1271735699726, 97.54233778220309 28.3805193389262 M97.54233778220309 28.3805193389262 C96.8798423772761 28.67378640245943, 96.21734697234913 28.96705346599266, 95.6959106537003 29.197877856399682 M97.54233778220309 28.3805193389262 C97.12388160750822 28.565757474402233, 96.70542543281334 28.75099560987827, 95.6959106537003 29.197877856399682 M95.6959106537003 29.197877856399682 C95.2326728525031 29.36835364936354, 94.7694350513059 29.5388294423274, 93.80090886774407 29.895256030836055 M95.6959106537003 29.197877856399682 C95.01349087141831 29.449014644498767, 94.33107108913633 29.70015143259785, 93.80090886774407 29.895256030836055 M93.80090886774407 29.895256030836055 C93.39128079359949 30.01683149306053, 92.98165271945491 30.138406955285, 91.86511939314951 30.46978818572942 M93.80090886774407 29.895256030836055 C93.08782230702326 30.106896378990253, 92.37473574630245 30.31853672714445, 91.86511939314951 30.46978818572942 M91.86511939314951 30.46978818572942 C91.39075595028015 30.578058546053594, 90.9163925074108 30.68632890637777, 89.89649680409323 30.919113445218557 M91.86511939314951 30.46978818572942 C91.14937932382051 30.633151185913317, 90.43363925449151 30.796514186097212, 89.89649680409323 30.919113445218557 M89.89649680409323 30.919113445218557 C89.12654939355171 31.043592571523565, 88.35660198301018 31.168071697828573, 87.90313059306196 31.24138543543225 M89.89649680409323 30.919113445218557 C89.20921994910674 31.03022703722116, 88.52194309412023 31.141340629223766, 87.90313059306196 31.24138543543225 M87.90313059306196 31.24138543543225 C87.41590425371693 31.28838757441346, 86.92867791437189 31.335389713394672, 85.89321192939245 31.435279871635593 M87.90313059306196 31.24138543543225 C87.47146326796089 31.283027863128837, 87.03979594285981 31.324670290825424, 85.89321192939245 31.435279871635593 M85.89321192939245 31.435279871635593 C85.38144799068793 31.45169114506177, 84.86968405198343 31.468102418487945, 83.875 31.5 M85.89321192939245 31.435279871635593 C85.25928614314832 31.455608637738756, 84.62536035690417 31.475937403841915, 83.875 31.5 M83.875 31.5 C83.875 31.5, 83.875 31.5, 83.875 31.5 M83.875 31.5 C83.875 31.5, 83.875 31.5, 83.875 31.5 M83.875 31.5 C47.83890262634092 31.5, 11.802805252681836 31.5, -83.875 31.5 M83.875 31.5 C30.42200214345918 31.5, -23.030995713081637 31.5, -83.875 31.5 M-83.875 31.5 C-84.5554871289755 31.4781781022616, -85.235974257951 31.4563562045232, -85.89321192939244 31.435279871635593 M-83.875 31.5 C-84.35274952867873 31.484679502498317, -84.83049905735747 31.469359004996637, -85.89321192939244 31.435279871635593 M-85.89321192939244 31.435279871635593 C-86.52472664727927 31.37435840630862, -87.1562413651661 31.313436940981646, -87.90313059306195 31.24138543543225 M-85.89321192939244 31.435279871635593 C-86.29674571243395 31.396351452905957, -86.70027949547546 31.357423034176325, -87.90313059306195 31.24138543543225 M-87.90313059306195 31.24138543543225 C-88.30510306407366 31.176397643662145, -88.7070755350854 31.11140985189204, -89.89649680409323 30.919113445218557 M-87.90313059306195 31.24138543543225 C-88.42921041879018 31.15633292901849, -88.95529024451841 31.07128042260473, -89.89649680409323 30.919113445218557 M-89.89649680409323 30.919113445218557 C-90.45265712284426 30.792173481748886, -91.0088174415953 30.66523351827922, -91.86511939314947 30.469788185729428 M-89.89649680409323 30.919113445218557 C-90.45574844229716 30.791467908256507, -91.01500008050111 30.663822371294458, -91.86511939314947 30.469788185729428 M-91.86511939314947 30.469788185729428 C-92.52944208919592 30.27262069664383, -93.19376478524238 30.075453207558233, -93.80090886774403 29.89525603083607 M-91.86511939314947 30.469788185729428 C-92.34549413808162 30.327215482972058, -92.82586888301377 30.184642780214688, -93.80090886774403 29.89525603083607 M-93.80090886774403 29.89525603083607 C-94.2823129218831 29.718094888862595, -94.76371697602218 29.540933746889117, -95.69591065370028 29.197877856399685 M-93.80090886774403 29.89525603083607 C-94.45881851403963 29.653139199349184, -95.11672816033524 29.411022367862294, -95.69591065370028 29.197877856399685 M-95.69591065370028 29.197877856399685 C-96.30528234216281 28.92812708628621, -96.91465403062533 28.65837631617274, -97.54233778220308 28.380519338926206 M-95.69591065370028 29.197877856399685 C-96.3027407057031 28.929252193351957, -96.90957075770592 28.660626530304228, -97.54233778220308 28.380519338926206 M-97.54233778220308 28.380519338926206 C-98.22294558207432 28.02544668568348, -98.90355338194556 27.67037403244076, -99.33260288812403 27.446539179886773 M-97.54233778220308 28.380519338926206 C-98.00054009387068 28.1414754864218, -98.4587424055383 27.902431633917395, -99.33260288812403 27.446539179886773 M-99.33260288812403 27.446539179886773 C-99.70991075865008 27.217812931466717, -100.08721862917614 26.98908668304666, -101.05934938813226 26.399775304092994 M-99.33260288812403 27.446539179886773 C-99.74250910881642 27.19805162002671, -100.15241532950881 26.949564060166644, -101.05934938813226 26.399775304092994 M-101.05934938813226 26.399775304092994 C-101.59066713218512 26.029151046216157, -102.12198487623799 25.658526788339323, -102.7154817104733 25.244529088840636 M-101.05934938813226 26.399775304092994 C-101.4286884243452 26.142140380860045, -101.79802746055812 25.884505457627093, -102.7154817104733 25.244529088840636 M-102.7154817104733 25.244529088840636 C-103.21218924290018 24.848418049672752, -103.70889677532706 24.452307010504867, -104.29419445219533 23.98554768862774 M-102.7154817104733 25.244529088840636 C-103.03312843416292 24.991214279632487, -103.35077515785252 24.73789947042434, -104.29419445219533 23.98554768862774 M-104.29419445219533 23.98554768862774 C-104.81626649635932 23.511415671387347, -105.33833854052331 23.037283654146954, -105.7890003440098 22.628004528078435 M-104.29419445219533 23.98554768862774 C-104.67166866625998 23.642735594834637, -105.04914288032462 23.299923501041537, -105.7890003440098 22.628004528078435 M-105.7890003440098 22.628004528078435 C-106.19587233017724 22.207875797549256, -106.60274431634465 21.78774706702008, -107.19375690787244 21.177478043231478 M-105.7890003440098 22.628004528078435 C-106.2269723510963 22.175762472591124, -106.66494435818278 21.723520417103813, -107.19375690787244 21.177478043231478 M-107.19375690787244 21.177478043231478 C-107.59817935342231 20.702420426399538, -108.00260179897218 20.227362809567595, -108.50269169774293 19.639928758550113 M-107.19375690787244 21.177478043231478 C-107.57084078075789 20.734533869460012, -107.94792465364335 20.29158969568855, -108.50269169774293 19.639928758550113 M-108.50269169774293 19.639928758550113 C-108.802368813123 19.238388725087674, -109.10204592850306 18.83684869162524, -109.7104260198041 18.021674793848355 M-108.50269169774293 19.639928758550113 C-108.76806626676843 19.28435101217654, -109.03344083579393 18.928773265802967, -109.7104260198041 18.021674793848355 M-109.7104260198041 18.021674793848355 C-110.11370137137537 17.402135559240318, -110.51697672294664 16.78259632463228, -110.8119970346684 16.329365901781557 M-109.7104260198041 18.021674793848355 C-109.99746828549578 17.58070079210515, -110.28451055118747 17.139726790361948, -110.8119970346684 16.329365901781557 M-110.8119970346684 16.329365901781557 C-111.11118273072628 15.798131402593883, -111.41036842678417 15.266896903406208, -111.8028781507495 14.569956142586314 M-110.8119970346684 16.329365901781557 C-111.10471046552 15.809623564855553, -111.39742389637162 15.289881227929547, -111.8028781507495 14.569956142586314 M-111.8028781507495 14.569956142586314 C-112.011515985865 14.13671521383445, -112.2201538209805 13.703474285082585, -112.67899762499809 12.750675308355417 M-111.8028781507495 14.569956142586314 C-112.006031945769 14.148102940433475, -112.20918574078848 13.726249738280634, -112.67899762499809 12.750675308355417 M-112.67899762499809 12.750675308355417 C-112.88132030506497 12.250934376947312, -113.08364298513185 11.751193445539206, -113.43675529456745 10.878999214271209 M-112.67899762499809 12.750675308355417 C-112.9587892749029 12.059584523686993, -113.2385809248077 11.368493739018568, -113.43675529456745 10.878999214271209 M-113.43675529456745 10.878999214271209 C-113.58544524988099 10.431168759393948, -113.73413520519455 9.983338304516689, -114.07303737065482 8.962618978877522 M-113.43675529456745 10.878999214271209 C-113.63832833885299 10.271893321186283, -113.83990138313854 9.664787428101356, -114.07303737065482 8.962618978877522 M-114.07303737065482 8.962618978877522 C-114.25953151062262 8.251435996108706, -114.44602565059043 7.540253013339888, -114.58522923372743 7.009409419623911 M-114.07303737065482 8.962618978877522 C-114.24380262298867 8.3114170616, -114.41456787532252 7.660215144322479, -114.58522923372743 7.009409419623911 M-114.58522923372743 7.009409419623911 C-114.66670589317908 6.591043993437739, -114.74818255263075 6.172678567251567, -114.97122617755518 5.027396693551461 M-114.58522923372743 7.009409419623911 C-114.7214662267064 6.309861254375585, -114.85770321968538 5.610313089127259, -114.97122617755518 5.027396693551461 M-114.97122617755518 5.027396693551461 C-115.04877871176184 4.425914552724667, -115.1263312459685 3.824432411897873, -115.22944205789975 3.024725316091999 M-114.97122617755518 5.027396693551461 C-115.07388476930387 4.231196928180503, -115.17654336105257 3.4349971628095446, -115.22944205789975 3.024725316091999 M-115.22944205789975 3.024725316091999 C-115.2768544979374 2.2862382918727047, -115.32426693797507 1.5477512676534109, -115.35881581032167 1.0096246935071416 M-115.22944205789975 3.024725316091999 C-115.26237311900015 2.5117974579791413, -115.29530418010056 1.9988695998662838, -115.35881581032167 1.0096246935071416 M-115.35881581032167 1.0096246935071416 C-115.35881581032167 0.3069046140110856, -115.35881581032167 -0.3958154654849704, -115.35881581032167 -1.0096246935071262 M-115.35881581032167 1.0096246935071416 C-115.35881581032167 0.44881719248587404, -115.35881581032167 -0.11199030853539349, -115.35881581032167 -1.0096246935071262 M-115.35881581032167 -1.0096246935071262 C-115.32278092868327 -1.57089706185816, -115.28674604704487 -2.132169430209194, -115.22944205789975 -3.024725316091956 M-115.35881581032167 -1.0096246935071262 C-115.30894791709878 -1.7863573830925747, -115.25908002387588 -2.563090072678023, -115.22944205789975 -3.024725316091956 M-115.22944205789975 -3.024725316091956 C-115.16146378025955 -3.5519514136400625, -115.09348550261936 -4.079177511188169, -114.97122617755518 -5.027396693551446 M-115.22944205789975 -3.024725316091956 C-115.13838744598031 -3.730926905372198, -115.04733283406088 -4.43712849465244, -114.97122617755518 -5.027396693551446 M-114.97122617755518 -5.027396693551446 C-114.86018297905423 -5.597580048865514, -114.74913978055328 -6.167763404179581, -114.58522923372745 -7.009409419623896 M-114.97122617755518 -5.027396693551446 C-114.86671125999763 -5.564058705973846, -114.76219634244006 -6.1007207183962455, -114.58522923372745 -7.009409419623896 M-114.58522923372745 -7.009409419623896 C-114.4104902447672 -7.6757649168861875, -114.23575125580696 -8.342120414148479, -114.07303737065482 -8.962618978877506 M-114.58522923372745 -7.009409419623896 C-114.41665922334455 -7.652239927918514, -114.24808921296166 -8.295070436213132, -114.07303737065482 -8.962618978877506 M-114.07303737065482 -8.962618978877506 C-113.85020222022344 -9.63376294801714, -113.62736706979206 -10.304906917156773, -113.43675529456746 -10.878999214271168 M-114.07303737065482 -8.962618978877506 C-113.83402203351177 -9.68249509243002, -113.59500669636871 -10.402371205982533, -113.43675529456746 -10.878999214271168 M-113.43675529456746 -10.878999214271168 C-113.23062694402627 -11.388140225328462, -113.02449859348508 -11.897281236385755, -112.67899762499809 -12.750675308355401 M-113.43675529456746 -10.878999214271168 C-113.26528421530925 -11.30253609520675, -113.09381313605103 -11.726072976142335, -112.67899762499809 -12.750675308355401 M-112.67899762499809 -12.750675308355401 C-112.49354231728076 -13.135777222938366, -112.30808700956341 -13.52087913752133, -111.8028781507495 -14.5699561425863 M-112.67899762499809 -12.750675308355401 C-112.44001328366468 -13.246931406579982, -112.20102894233126 -13.743187504804563, -111.8028781507495 -14.5699561425863 M-111.8028781507495 -14.5699561425863 C-111.49719216855026 -15.11273255804332, -111.19150618635099 -15.655508973500337, -110.8119970346684 -16.329365901781546 M-111.8028781507495 -14.5699561425863 C-111.44520870274253 -15.20503446548163, -111.08753925473556 -15.84011278837696, -110.8119970346684 -16.329365901781546 M-110.8119970346684 -16.329365901781546 C-110.49106404675373 -16.822405153792428, -110.17013105883906 -17.315444405803312, -109.71042601980412 -18.021674793848344 M-110.8119970346684 -16.329365901781546 C-110.48455938388925 -16.832398062698818, -110.1571217331101 -17.335430223616086, -109.71042601980412 -18.021674793848344 M-109.71042601980412 -18.021674793848344 C-109.37464036027953 -18.471596986908395, -109.03885470075495 -18.921519179968442, -108.50269169774295 -19.639928758550102 M-109.71042601980412 -18.021674793848344 C-109.4192371462012 -18.41184135662413, -109.12804827259829 -18.80200791939992, -108.50269169774295 -19.639928758550102 M-108.50269169774295 -19.639928758550102 C-108.08352861820556 -20.132301562829603, -107.66436553866819 -20.624674367109105, -107.19375690787246 -21.177478043231467 M-108.50269169774295 -19.639928758550102 C-108.12966615131847 -20.07810579113518, -107.756640604894 -20.516282823720257, -107.19375690787246 -21.177478043231467 M-107.19375690787246 -21.177478043231467 C-106.84822469481206 -21.53426842193861, -106.50269248175165 -21.891058800645748, -105.78900034400984 -22.628004528078403 M-107.19375690787246 -21.177478043231467 C-106.78959191159129 -21.59481158445508, -106.3854269153101 -22.012145125678696, -105.78900034400984 -22.628004528078403 M-105.78900034400984 -22.628004528078403 C-105.3870885051555 -22.993010226121374, -104.98517666630117 -23.358015924164345, -104.29419445219536 -23.98554768862771 M-105.78900034400984 -22.628004528078403 C-105.22102506102914 -23.143824652278987, -104.65304977804843 -23.65964477647957, -104.29419445219536 -23.98554768862771 M-104.29419445219536 -23.98554768862771 C-103.67598160464908 -24.478555983211077, -103.05776875710282 -24.971564277794446, -102.71548171047331 -25.244529088840626 M-104.29419445219536 -23.98554768862771 C-103.88962517791961 -24.308180918822085, -103.48505590364387 -24.63081414901646, -102.71548171047331 -25.244529088840626 M-102.71548171047331 -25.244529088840626 C-102.12918602246573 -25.653503580463436, -101.54289033445816 -26.06247807208625, -101.0593493881323 -26.39977530409297 M-102.71548171047331 -25.244529088840626 C-102.16691703507854 -25.62718405941396, -101.61835235968377 -26.00983902998729, -101.0593493881323 -26.39977530409297 M-101.0593493881323 -26.39977530409297 C-100.60278275438986 -26.676548680550994, -100.14621612064742 -26.95332205700902, -99.33260288812404 -27.446539179886763 M-101.0593493881323 -26.39977530409297 C-100.51990612493515 -26.72678898036358, -99.98046286173798 -27.05380265663419, -99.33260288812404 -27.446539179886763 M-99.33260288812404 -27.446539179886763 C-98.95908536901838 -27.641403030354798, -98.58556784991272 -27.836266880822834, -97.54233778220309 -28.3805193389262 M-99.33260288812404 -27.446539179886763 C-98.68337969970139 -27.78523850143956, -98.03415651127875 -28.12393782299236, -97.54233778220309 -28.3805193389262 M-97.54233778220309 -28.3805193389262 C-96.93251256521502 -28.650470872664485, -96.32268734822695 -28.92042240640277, -95.6959106537003 -29.19787785639968 M-97.54233778220309 -28.3805193389262 C-96.90569597472988 -28.662341781786363, -96.26905416725667 -28.944164224646528, -95.6959106537003 -29.19787785639968 M-95.6959106537003 -29.19787785639968 C-94.95498747000897 -29.470544437016915, -94.21406428631767 -29.74321101763415, -93.80090886774407 -29.895256030836055 M-95.6959106537003 -29.19787785639968 C-95.15241759981994 -29.397888324222365, -94.60892454593959 -29.59789879204505, -93.80090886774407 -29.895256030836055 M-93.80090886774407 -29.895256030836055 C-93.25960095154807 -30.055913378979795, -92.71829303535206 -30.216570727123536, -91.86511939314951 -30.469788185729417 M-93.80090886774407 -29.895256030836055 C-93.35082198555212 -30.028839454916373, -92.90073510336016 -30.16242287899669, -91.86511939314951 -30.469788185729417 M-91.86511939314951 -30.469788185729417 C-91.38875299800956 -30.57851570683887, -90.91238660286962 -30.687243227948322, -89.89649680409325 -30.919113445218553 M-91.86511939314951 -30.469788185729417 C-91.16140164720889 -30.63040716905291, -90.45768390126827 -30.791026152376404, -89.89649680409325 -30.919113445218553 M-89.89649680409325 -30.919113445218553 C-89.15367793339672 -31.03920663958639, -88.41085906270021 -31.159299833954226, -87.90313059306196 -31.24138543543225 M-89.89649680409325 -30.919113445218553 C-89.30544947145998 -31.01466939431818, -88.71440213882673 -31.110225343417802, -87.90313059306196 -31.24138543543225 M-87.90313059306196 -31.24138543543225 C-87.38104468910971 -31.291750434686357, -86.85895878515748 -31.342115433940467, -85.89321192939246 -31.435279871635593 M-87.90313059306196 -31.24138543543225 C-87.35691584499574 -31.294078115258852, -86.81070109692953 -31.346770795085455, -85.89321192939246 -31.435279871635593 M-85.89321192939246 -31.435279871635593 C-85.23527398734655 -31.456378660838492, -84.57733604530063 -31.47747745004139, -83.87500000000001 -31.5 M-85.89321192939246 -31.435279871635593 C-85.16566164836688 -31.45861099305737, -84.43811136734129 -31.48194211447915, -83.87500000000001 -31.5 M-83.87500000000001 -31.5 C-83.87500000000001 -31.5, -83.875 -31.5, -83.875 -31.5 M-83.87500000000001 -31.5 C-83.87500000000001 -31.5, -83.875 -31.5, -83.875 -31.5" stroke="#383d41" stroke-width="2" fill="none" stroke-dasharray="0 0" style="fill:#e2e3e5 !important;stroke:#383d41 !important;stroke-width:2px !important"/></g><g class="label" style="color:#383d41 !important" transform="translate(-100, -24)"><rect/><foreignObject width="200" height="48"><div style="color: rgb(56, 61, 65) !important; display: table; white-space: break-spaces; line-height: 1.5; max-width: 200px; text-align: center; width: 200px;" xmlns="http://www.w3.org/1999/xhtml"><span style="color:#383d41 !important" class="nodeLabel"><p>Cliente / Originacion de credito</p></span></div></foreignObject></g></g><g class="node default external" id="my-svg-flowchart-Bureaus-1" data-look="classic" transform="translate(1806.31640625, 1685.5)"><polygon points="-67.5,0 215,0 282.5,-135 0,-135" class="label-container" transform="translate(-107.5,67.5)" style="fill:#e2e3e5 !important;stroke:#383d41 !important;stroke-width:2px !important"/><g class="label" style="color:#383d41 !important" transform="translate(-100, -60)"><rect/><foreignObject width="200" height="120"><div style="color: rgb(56, 61, 65) !important; display: table; white-space: break-spaces; line-height: 1.5; max-width: 200px; text-align: center; width: 200px;" xmlns="http://www.w3.org/1999/xhtml"><span style="color:#383d41 !important" class="nodeLabel"><p>Proveedores Externos<br />Bureaus de credito - KYC/AML<br />IPs de ambas regiones pre-autorizadas</p></span></div></foreignObject></g></g><g class="node default control" id="my-svg-flowchart-R53-3" data-look="classic" transform="translate(943.61328125, 429)"><polygon points="163,0 326,-163 163,-326 0,-163" class="label-container" transform="translate(-162.5, 163)" style="fill:#cce5ff !important;stroke:#004085 !important;stroke-width:2px !important"/><g class="label" style="color:#004085 !important" transform="translate(-100, -48)"><rect/><foreignObject width="200" height="96"><div style="color: rgb(0, 64, 133) !important; display: table; white-space: break-spaces; line-height: 1.5; max-width: 200px; text-align: center; width: 200px;" xmlns="http://www.w3.org/1999/xhtml"><span style="color:#004085 !important" class="nodeLabel"><p>Route 53<br />Failover Routing<br />primary: east - secondary: west</p></span></div></foreignObject></g></g><g class="node default control" id="my-svg-flowchart-ARC-4" data-look="classic" transform="translate(564.6643409729004, 112.5)"><polygon points="0,0 215,0 215,-159 0,-159 0,0 -8,0 223,0 223,-159 -8,-159 -8,0" class="label-container" transform="translate(-107.5,79.5)" style="fill:#cce5ff !important;stroke:#004085 !important;stroke-width:2px !important"/><g class="label" style="color:#004085 !important" transform="translate(-100, -72)"><rect/><foreignObject width="200" height="144"><div style="color: rgb(0, 64, 133) !important; display: table; white-space: break-spaces; line-height: 1.5; max-width: 200px; text-align: center; width: 200px;" xmlns="http://www.w3.org/1999/xhtml"><span style="color:#004085 !important" class="nodeLabel"><p>Route 53 ARC<br />Routing Controls (data plane)<br />Readiness Checks continuos<br />Cluster 5 regiones</p></span></div></foreignObject></g></g><g class="node default primary" id="my-svg-flowchart-APIGW_E-7" data-look="classic" transform="translate(1744.4489402770996, 693)"><rect class="basic label-container" style="fill:#d4edda !important;stroke:#28a745 !important;stroke-width:2px !important" x="-110.4921875" y="-27" width="220.984375" height="54"/><g class="label" style="color:#155724 !important" transform="translate(-80.4921875, -12)"><rect/><foreignObject width="160.984375" height="24"><div style="color: rgb(21, 87, 36) !important; display: table-cell; white-space: nowrap; line-height: 1.5; max-width: 200px; text-align: center;" xmlns="http://www.w3.org/1999/xhtml"><span style="color:#155724 !important" class="nodeLabel"><p>API Gateway Regional</p></span></div></foreignObject></g></g><g class="node default primary" id="my-svg-flowchart-ALB_E-8" data-look="classic" transform="translate(1744.4489402770996, 882)"><rect class="basic label-container" style="fill:#d4edda !important;stroke:#28a745 !important;stroke-width:2px !important" x="-45.125" y="-27" width="90.25" height="54"/><g class="label" style="color:#155724 !important" transform="translate(-15.125, -12)"><rect/><foreignObject width="30.25" height="24"><div style="color: rgb(21, 87, 36) !important; display: table-cell; white-space: nowrap; line-height: 1.5; max-width: 200px; text-align: center;" xmlns="http://www.w3.org/1999/xhtml"><span style="color:#155724 !important" class="nodeLabel"><p>ALB</p></span></div></foreignObject></g></g><g class="node default primary" id="my-svg-flowchart-ECS_E-9" data-look="classic" transform="translate(1744.4489402770996, 1047)"><rect class="basic label-container" style="fill:#d4edda !important;stroke:#28a745 !important;stroke-width:2px !important" x="-106.03125" y="-51" width="212.0625" height="102"/><g class="label" style="color:#155724 !important" transform="translate(-76.03125, -36)"><rect/><foreignObject width="152.0625" height="72"><div style="color: rgb(21, 87, 36) !important; display: table-cell; white-space: nowrap; line-height: 1.5; max-width: 200px; text-align: center;" xmlns="http://www.w3.org/1999/xhtml"><span style="color:#155724 !important" class="nodeLabel"><p>ECS Fargate<br />capacidad FULL<br />trafico real de Credits</p></span></div></foreignObject></g></g><g class="node default primary" id="my-svg-flowchart-WRITER_E-10" data-look="classic" transform="translate(1493.89453125, 1309)"><path d="M0,7.864976010966416 a28.6875,7.864976010966416 0,0,0 57.375,0 a28.6875,7.864976010966416 0,0,0 -57.375,0 l0,46.864976010966416 a28.6875,7.864976010966416 0,0,0 57.375,0 l0,-46.864976010966416" class="basic label-container outer-path" style="fill:#d4edda !important;stroke:#28a745 !important;stroke-width:2px !important" transform="translate(-28.6875, -31.297464016449624)"/><g class="label" style="color:#155724 !important" transform="translate(-21.1875, -2)"><rect/><foreignObject width="42.375" height="24"><div style="color: rgb(21, 87, 36) !important; display: table-cell; white-space: nowrap; line-height: 1.5; max-width: 200px; text-align: center;" xmlns="http://www.w3.org/1999/xhtml"><span style="color:#155724 !important" class="nodeLabel"><p>Writer</p></span></div></foreignObject></g></g><g class="node default primary" id="my-svg-flowchart-READ_E1-11" data-look="classic" transform="translate(1642.86328125, 1309)"><path d="M0,8.764915983440215 a33.7421875,8.764915983440215 0,0,0 67.484375,0 a33.7421875,8.764915983440215 0,0,0 -67.484375,0 l0,47.76491598344022 a33.7421875,8.764915983440215 0,0,0 67.484375,0 l0,-47.76491598344022" class="basic label-container outer-path" style="fill:#d4edda !important;stroke:#28a745 !important;stroke-width:2px !important" transform="translate(-33.7421875, -32.64737397516032)"/><g class="label" style="color:#155724 !important" transform="translate(-26.2421875, -2)"><rect/><foreignObject width="52.484375" height="24"><div style="color: rgb(21, 87, 36) !important; display: table-cell; white-space: nowrap; line-height: 1.5; max-width: 200px; text-align: center;" xmlns="http://www.w3.org/1999/xhtml"><span style="color:#155724 !important" class="nodeLabel"><p>Reader</p></span></div></foreignObject></g></g><g class="node default primary" id="my-svg-flowchart-CW_E-12" data-look="classic" transform="translate(1449.1715965270996, 112.5)"><rect class="basic label-container" style="fill:#d4edda !important;stroke:#28a745 !important;stroke-width:2px !important" x="-130" y="-75" width="260" height="150"/><g class="label" style="color:#155724 !important" transform="translate(-100, -60)"><rect/><foreignObject width="200" height="120"><div style="color: rgb(21, 87, 36) !important; display: table; white-space: break-spaces; line-height: 1.5; max-width: 200px; text-align: center; width: 200px;" xmlns="http://www.w3.org/1999/xhtml"><span style="color:#155724 !important" class="nodeLabel"><p>CloudWatch us-east-1<br />Health del primary<br />Replication lag a west<br />Dispara ALERTA - no failover</p></span></div></foreignObject></g></g><g class="node default primary" id="my-svg-flowchart-S3_E-13" data-look="classic" transform="translate(1322.34765625, 1309)"><path d="M0,11.455370445618312 a52.859375,11.455370445618312 0,0,0 105.71875,0 a52.859375,11.455370445618312 0,0,0 -105.71875,0 l0,50.455370445618314 a52.859375,11.455370445618312 0,0,0 105.71875,0 l0,-50.455370445618314" class="basic label-container outer-path" style="fill:#d4edda !important;stroke:#28a745 !important;stroke-width:2px !important" transform="translate(-52.859375, -36.68305566842747)"/><g class="label" style="color:#155724 !important" transform="translate(-45.359375, -2)"><rect/><foreignObject width="90.71875" height="24"><div style="color: rgb(21, 87, 36) !important; display: table-cell; white-space: nowrap; line-height: 1.5; max-width: 200px; text-align: center;" xmlns="http://www.w3.org/1999/xhtml"><span style="color:#155724 !important" class="nodeLabel"><p>S3 us-east-1</p></span></div></foreignObject></g></g><g class="node default primary" id="my-svg-flowchart-NR_E-14" data-look="classic" transform="translate(2096.84765625, 1309)"><polygon points="-31.5,0 151.09375,0 182.59375,-63 0,-63" class="label-container" transform="translate(-75.546875,31.5)" style="fill:#d4edda !important;stroke:#28a745 !important;stroke-width:2px !important"/><g class="label" style="color:#155724 !important" transform="translate(-68.046875, -24)"><rect/><foreignObject width="136.09375" height="48"><div style="color: rgb(21, 87, 36) !important; display: table-cell; white-space: nowrap; line-height: 1.5; max-width: 200px; text-align: center;" xmlns="http://www.w3.org/1999/xhtml"><span style="color:#155724 !important" class="nodeLabel"><p>New Relic APM<br />salud de aplicacion</p></span></div></foreignObject></g></g><g class="node default warm" id="my-svg-flowchart-APIGW_W-15" data-look="classic" transform="translate(943.61328125, 882)"><rect class="basic label-container" style="fill:#fff3cd !important;stroke:#ffc107 !important;stroke-width:2px !important" x="-110.4921875" y="-39" width="220.984375" height="78"/><g class="label" style="color:#856404 !important" transform="translate(-80.4921875, -24)"><rect/><foreignObject width="160.984375" height="48"><div style="color: rgb(133, 100, 4) !important; display: table-cell; white-space: nowrap; line-height: 1.5; max-width: 200px; text-align: center;" xmlns="http://www.w3.org/1999/xhtml"><span style="color:#856404 !important" class="nodeLabel"><p>API Gateway Regional<br />desplegado - inactivo</p></span></div></foreignObject></g></g><g class="node default warm" id="my-svg-flowchart-ALB_W-16" data-look="classic" transform="translate(943.61328125, 1047)"><rect class="basic label-container" style="fill:#fff3cd !important;stroke:#ffc107 !important;stroke-width:2px !important" x="-105.609375" y="-39" width="211.21875" height="78"/><g class="label" style="color:#856404 !important" transform="translate(-75.609375, -24)"><rect/><foreignObject width="151.21875" height="48"><div style="color: rgb(133, 100, 4) !important; display: table-cell; white-space: nowrap; line-height: 1.5; max-width: 200px; text-align: center;" xmlns="http://www.w3.org/1999/xhtml"><span style="color:#856404 !important" class="nodeLabel"><p>ALB<br />desplegado - inactivo</p></span></div></foreignObject></g></g><g class="node default warm" id="my-svg-flowchart-ECS_W-17" data-look="classic" transform="translate(829.2890625, 1309)"><rect class="basic label-container" style="fill:#fff3cd !important;stroke:#ffc107 !important;stroke-width:2px !important" x="-130" y="-87" width="260" height="174"/><g class="label" style="color:#856404 !important" transform="translate(-100, -72)"><rect/><foreignObject width="200" height="144"><div style="color: rgb(133, 100, 4) !important; display: table; white-space: break-spaces; line-height: 1.5; max-width: 200px; text-align: center; width: 200px;" xmlns="http://www.w3.org/1999/xhtml"><span style="color:#856404 !important" class="nodeLabel"><p>ECS Fargate<br />MINIMO ABSOLUTO 1-2 tasks<br />escalable a full en failover<br />Terragrunt - mismo modulo que east</p></span></div></foreignObject></g></g><g class="node default warm" id="my-svg-flowchart-READ_W1-18" data-look="classic" transform="translate(473.5390625, 1685.5)"><path d="M0,14.201447006101183 a82.1953125,14.201447006101183 0,0,0 164.390625,0 a82.1953125,14.201447006101183 0,0,0 -164.390625,0 l0,77.20144700610118 a82.1953125,14.201447006101183 0,0,0 164.390625,0 l0,-77.20144700610118" class="basic label-container outer-path" style="fill:#fff3cd !important;stroke:#ffc107 !important;stroke-width:2px !important" transform="translate(-82.1953125, -52.80217050915177)"/><g class="label" style="color:#856404 !important" transform="translate(-74.6953125, -14)"><rect/><foreignObject width="149.390625" height="48"><div style="color: rgb(133, 100, 4) !important; display: table-cell; white-space: nowrap; line-height: 1.5; max-width: 200px; text-align: center;" xmlns="http://www.w3.org/1999/xhtml"><span style="color:#856404 !important" class="nodeLabel"><p>Reader - read-only<br />promovible a primary</p></span></div></foreignObject></g></g><g class="node default warm" id="my-svg-flowchart-CW_W-19" data-look="classic" transform="translate(172.171875, 1309)"><rect class="basic label-container" style="fill:#fff3cd !important;stroke:#ffc107 !important;stroke-width:2px !important" x="-129.171875" y="-51" width="258.34375" height="102"/><g class="label" style="color:#856404 !important" transform="translate(-99.171875, -36)"><rect/><foreignObject width="198.34375" height="72"><div style="color: rgb(133, 100, 4) !important; display: table-cell; white-space: nowrap; line-height: 1.5; max-width: 200px; text-align: center;" xmlns="http://www.w3.org/1999/xhtml"><span style="color:#856404 !important" class="nodeLabel"><p>CloudWatch us-west-2<br />Readiness de la secondary<br />Lag desde perspectiva west</p></span></div></foreignObject></g></g><g class="node default warm" id="my-svg-flowchart-S3_W-20" data-look="classic" transform="translate(1118.29296875, 1685.5)"><path d="M0,11.609534011783609 a54.1875,11.609534011783609 0,0,0 108.375,0 a54.1875,11.609534011783609 0,0,0 -108.375,0 l0,50.60953401178361 a54.1875,11.609534011783609 0,0,0 108.375,0 l0,-50.60953401178361" class="basic label-container outer-path" style="fill:#fff3cd !important;stroke:#ffc107 !important;stroke-width:2px !important" transform="translate(-54.1875, -36.91430101767541)"/><g class="label" style="color:#856404 !important" transform="translate(-46.6875, -2)"><rect/><foreignObject width="93.375" height="24"><div style="color: rgb(133, 100, 4) !important; display: table-cell; white-space: nowrap; line-height: 1.5; max-width: 200px; text-align: center;" xmlns="http://www.w3.org/1999/xhtml"><span style="color:#856404 !important" class="nodeLabel"><p>S3 us-west-2</p></span></div></foreignObject></g></g></g></g></g><defs><filter id="my-svg-drop-shadow" height="130%" width="130%"><feDropShadow dx="4" dy="4" stdDeviation="0" flood-opacity="0.06" flood-color="#000000"/></filter></defs><defs><filter id="my-svg-drop-shadow-small" height="150%" width="150%"><feDropShadow dx="2" dy="2" stdDeviation="0" flood-opacity="0.06" flood-color="#000000"/></filter></defs></svg>